<?xml version="1.0" encoding="utf-8"?>
<!-- Generator: Adobe Illustrator 17.0.1, SVG Export Plug-In . SVG Version: 6.00 Build 0)  -->
<!DOCTYPE svg PUBLIC "-//W3C//DTD SVG 1.1//EN" "http://www.w3.org/Graphics/SVG/1.1/DTD/svg11.dtd">
<svg version="1.1" id="Layer_1" xmlns="http://www.w3.org/2000/svg" xmlns:xlink="http://www.w3.org/1999/xlink" x="0px" y="0px"
	 width="66px" height="66px" viewBox="0 0 66 66" enable-background="new 0 0 66 66" xml:space="preserve">
<g>
	<g>
		<path fill="#DC4C3F" d="M3.24,33c0-4.094,0.752-7.977,2.264-11.647c1.505-3.664,3.609-6.843,6.307-9.543
			c2.694-2.694,5.873-4.796,9.543-6.307c3.664-1.507,7.547-2.264,11.645-2.264c4.096,0,7.977,0.757,11.647,2.264
			c3.664,1.512,6.845,3.613,9.543,6.307c2.694,2.701,4.796,5.879,6.307,9.543c1.507,3.67,2.264,7.553,2.264,11.647
			c0,4.098-0.757,7.981-2.264,11.645c-1.512,3.67-3.613,6.849-6.307,9.543c-2.698,2.698-5.879,4.802-9.543,6.309
			c-3.67,1.505-7.551,2.264-11.647,2.264c-4.098,0-7.981-0.759-11.645-2.264c-3.67-1.507-6.849-3.611-9.543-6.309
			c-2.698-2.694-4.802-5.873-6.307-9.543C3.992,40.981,3.24,37.098,3.24,33z"/>
	</g>
	<g>
		<path fill="#FEFEFF" d="M53.412,47.361c-2.168,2.77-4.909,4.908-8.219,6.413c-3.312,1.504-6.744,2.258-10.296,2.258
			c-3.373,0-6.548-0.542-9.528-1.626c-2.981-1.084-5.57-2.633-7.767-4.651c-2.199-2.017-3.929-4.44-5.193-7.271
			c-1.265-2.83-1.897-5.99-1.897-9.483c0-3.491,0.632-6.652,1.897-9.483c1.265-2.83,2.995-5.252,5.193-7.271
			c2.197-2.016,4.787-3.567,7.767-4.651s6.156-1.626,9.528-1.626c3.13,0,5.975,0.542,8.535,1.626
			c2.558,1.084,4.726,2.635,6.503,4.651c1.775,2.019,3.145,4.441,4.109,7.271c0.963,2.831,1.445,5.992,1.445,9.483v4.245H24.058
			c0.542,2.589,1.716,4.651,3.522,6.187c1.806,1.535,4.033,2.303,6.684,2.303c2.227,0,4.109-0.497,5.645-1.49
			c1.535-0.993,2.875-2.272,4.019-3.838L53.412,47.361z M41.942,28.032c0.059-2.287-0.693-4.245-2.258-5.871
			c-1.566-1.626-3.583-2.438-6.051-2.438c-1.506,0-2.831,0.241-3.974,0.722c-1.145,0.483-2.123,1.099-2.936,1.852
			c-0.813,0.753-1.445,1.625-1.897,2.619c-0.452,0.993-0.708,2.032-0.767,3.116H41.942z"/>
	</g>
</g>
</svg>
