<?xml version="1.0" encoding="utf-8"?>
<!-- Generator: Adobe Illustrator 17.1.0, SVG Export Plug-In . SVG Version: 6.00 Build 0)  -->
<!DOCTYPE svg PUBLIC "-//W3C//DTD SVG 1.1//EN" "http://www.w3.org/Graphics/SVG/1.1/DTD/svg11.dtd">
<svg version="1.1" id="Layer_1" xmlns="http://www.w3.org/2000/svg" xmlns:xlink="http://www.w3.org/1999/xlink" x="0px" y="0px"
	 viewBox="18 11 373 58" enable-background="new 18 11 373 58" xml:space="preserve">
<g enable-background="new    ">
	<path fill="#4D4D4D" d="M55.354,59.452c-1.728,2.208-3.913,3.913-6.552,5.112c-2.64,1.199-5.376,1.8-8.208,1.8
		c-2.688,0-5.22-0.433-7.596-1.296c-2.376-0.864-4.44-2.1-6.192-3.708c-1.753-1.608-3.132-3.54-4.14-5.796s-1.512-4.776-1.512-7.561
		c0-2.783,0.504-5.303,1.512-7.56c1.008-2.256,2.387-4.188,4.14-5.796c1.751-1.608,3.816-2.845,6.192-3.708
		c2.376-0.864,4.907-1.297,7.596-1.297c2.496,0,4.764,0.433,6.804,1.297c2.04,0.863,3.768,2.1,5.184,3.708
		c1.415,1.608,2.507,3.54,3.276,5.796c0.767,2.257,1.152,4.776,1.152,7.56v3.384H31.954c0.432,2.064,1.368,3.708,2.808,4.933
		c1.44,1.224,3.215,1.836,5.328,1.836c1.775,0,3.276-0.396,4.5-1.188c1.224-0.792,2.292-1.811,3.204-3.06L55.354,59.452z
		 M46.21,44.044c0.047-1.823-0.552-3.384-1.8-4.68c-1.249-1.296-2.856-1.944-4.824-1.944c-1.2,0-2.257,0.192-3.168,0.576
		c-0.913,0.385-1.692,0.876-2.34,1.476c-0.648,0.601-1.152,1.296-1.512,2.088s-0.565,1.62-0.612,2.484H46.21z"/>
	<path fill="#4D4D4D" d="M59.889,30.508h11.664l8.856,23.76h0.144l8.208-23.76h10.872L85.809,65.5H74.362L59.889,30.508z"/>
	<path fill="#4D4D4D" d="M136.714,59.452c-1.728,2.208-3.913,3.913-6.552,5.112c-2.64,1.199-5.376,1.8-8.208,1.8
		c-2.688,0-5.22-0.433-7.596-1.296c-2.376-0.864-4.44-2.1-6.192-3.708c-1.753-1.608-3.132-3.54-4.14-5.796s-1.512-4.776-1.512-7.561
		c0-2.783,0.504-5.303,1.512-7.56c1.008-2.256,2.387-4.188,4.14-5.796c1.751-1.608,3.816-2.845,6.192-3.708
		c2.376-0.864,4.907-1.297,7.596-1.297c2.496,0,4.764,0.433,6.804,1.297c2.04,0.863,3.768,2.1,5.184,3.708
		c1.415,1.608,2.507,3.54,3.276,5.796c0.767,2.257,1.152,4.776,1.152,7.56v3.384h-25.056c0.432,2.064,1.368,3.708,2.808,4.933
		c1.44,1.224,3.215,1.836,5.328,1.836c1.775,0,3.276-0.396,4.5-1.188c1.224-0.792,2.292-1.811,3.204-3.06L136.714,59.452z
		 M127.57,44.044c0.047-1.823-0.552-3.384-1.8-4.68c-1.249-1.296-2.856-1.944-4.824-1.944c-1.2,0-2.257,0.192-3.168,0.576
		c-0.913,0.385-1.692,0.876-2.34,1.476c-0.648,0.601-1.152,1.296-1.512,2.088s-0.565,1.62-0.612,2.484H127.57z"/>
	<path fill="#4D4D4D" d="M144.921,30.508h10.8v5.616h0.144c1.152-2.16,2.52-3.78,4.104-4.86c1.584-1.08,3.576-1.62,5.976-1.62
		c0.624,0,1.248,0.025,1.872,0.072c0.624,0.049,1.199,0.145,1.728,0.288v9.864c-0.769-0.24-1.524-0.42-2.268-0.54
		c-0.745-0.119-1.524-0.18-2.34-0.18c-2.064,0-3.697,0.287-4.896,0.863c-1.2,0.576-2.124,1.381-2.772,2.412
		c-0.648,1.033-1.069,2.269-1.26,3.708c-0.192,1.44-0.288,3.024-0.288,4.752V65.5h-10.8V30.508z"/>
	<path fill="#4D4D4D" d="M196.617,41.812c-0.529-0.767-1.272-1.403-2.232-1.907c-0.961-0.504-1.992-0.756-3.096-0.756
		c-2.736,0-4.86,0.816-6.372,2.447c-1.512,1.633-2.268,3.77-2.268,6.408c0,2.641,0.756,4.776,2.268,6.408
		c1.512,1.632,3.636,2.448,6.372,2.448c1.2,0,2.232-0.264,3.096-0.792c0.864-0.528,1.607-1.152,2.232-1.872l7.128,7.487
		c-1.681,1.729-3.661,2.941-5.94,3.637c-2.28,0.695-4.453,1.044-6.516,1.044c-2.688,0-5.22-0.433-7.596-1.296
		c-2.376-0.864-4.44-2.1-6.192-3.708c-1.753-1.608-3.132-3.54-4.14-5.796s-1.512-4.776-1.512-7.561c0-2.783,0.504-5.303,1.512-7.56
		c1.008-2.256,2.387-4.188,4.14-5.796c1.751-1.608,3.816-2.845,6.192-3.708c2.376-0.864,4.907-1.297,7.596-1.297
		c2.063,0,4.236,0.35,6.516,1.045c2.279,0.696,4.259,1.907,5.94,3.636L196.617,41.812z"/>
	<path fill="#4D4D4D" d="M229.592,61.108h-0.144c-1.2,1.872-2.797,3.216-4.788,4.031c-1.992,0.816-4.093,1.225-6.3,1.225
		c-1.633,0-3.204-0.229-4.716-0.685c-1.513-0.455-2.845-1.14-3.996-2.052c-1.152-0.911-2.064-2.04-2.736-3.384
		c-0.673-1.344-1.008-2.903-1.008-4.68c0-2.017,0.371-3.72,1.116-5.112c0.743-1.392,1.751-2.544,3.023-3.456
		c1.271-0.911,2.724-1.62,4.356-2.124c1.631-0.504,3.323-0.875,5.076-1.116c1.751-0.239,3.503-0.384,5.256-0.432
		c1.751-0.048,3.371-0.072,4.859-0.072c0-1.919-0.684-3.443-2.052-4.572c-1.368-1.127-2.988-1.691-4.86-1.691
		c-1.776,0-3.396,0.372-4.859,1.115c-1.465,0.745-2.772,1.765-3.924,3.061l-5.761-5.904c2.017-1.872,4.367-3.275,7.057-4.212
		c2.688-0.936,5.472-1.404,8.352-1.404c3.168,0,5.771,0.396,7.812,1.188c2.039,0.792,3.672,1.956,4.896,3.492
		c1.225,1.536,2.076,3.42,2.557,5.651c0.479,2.232,0.72,4.813,0.72,7.74V65.5h-9.937V61.108z M226.928,50.164
		c-0.816,0-1.836,0.036-3.06,0.108c-1.224,0.071-2.4,0.276-3.528,0.611c-1.128,0.337-2.088,0.841-2.88,1.513
		s-1.188,1.608-1.188,2.808c0,1.296,0.551,2.257,1.655,2.88c1.104,0.624,2.256,0.936,3.456,0.936c1.056,0,2.076-0.144,3.061-0.432
		c0.983-0.288,1.859-0.695,2.628-1.224c0.768-0.528,1.379-1.199,1.836-2.017c0.456-0.815,0.684-1.775,0.684-2.88v-2.304H226.928z"/>
	<path fill="#4D4D4D" d="M246.295,30.508h10.368v4.752h0.145c0.335-0.672,0.815-1.343,1.439-2.016
		c0.623-0.672,1.368-1.271,2.232-1.8c0.863-0.528,1.847-0.96,2.952-1.296c1.104-0.336,2.304-0.505,3.6-0.505
		c2.448,0,4.619,0.505,6.517,1.513c1.896,1.008,3.323,2.592,4.283,4.752c1.248-2.256,2.76-3.863,4.536-4.824
		c1.775-0.96,3.96-1.44,6.553-1.44c2.351,0,4.331,0.396,5.939,1.188c1.607,0.792,2.88,1.872,3.816,3.24
		c0.936,1.368,1.607,2.977,2.016,4.824c0.407,1.848,0.612,3.828,0.612,5.939V65.5h-10.8V45.124c0-1.631-0.35-3.035-1.044-4.212
		c-0.697-1.176-1.934-1.764-3.708-1.764c-1.249,0-2.293,0.204-3.133,0.611c-0.84,0.408-1.512,0.973-2.016,1.692
		s-0.864,1.561-1.08,2.52c-0.216,0.961-0.324,1.969-0.324,3.024V65.5h-10.8V46.996c0-0.623-0.025-1.392-0.072-2.304
		c-0.048-0.912-0.216-1.775-0.504-2.593c-0.288-0.815-0.756-1.512-1.404-2.088c-0.647-0.576-1.596-0.863-2.844-0.863
		c-1.393,0-2.52,0.252-3.384,0.756s-1.524,1.177-1.98,2.016c-0.456,0.841-0.756,1.789-0.899,2.844
		c-0.145,1.057-0.216,2.16-0.216,3.312V65.5h-10.801V30.508z"/>
</g>
<g enable-background="new    ">
	<path fill="#4D4D4D" d="M330.823,19.492c0-1.729,0.611-3.204,1.836-4.428c1.224-1.225,2.699-1.837,4.428-1.837
		c1.728,0,3.204,0.612,4.428,1.837c1.225,1.224,1.836,2.699,1.836,4.428c0,1.728-0.611,3.204-1.836,4.428
		c-1.224,1.224-2.7,1.836-4.428,1.836c-1.729,0-3.204-0.612-4.428-1.836C331.434,22.696,330.823,21.22,330.823,19.492z
		 M331.686,30.508h10.8V65.5h-10.8V30.508z"/>
	<path fill="#4D4D4D" d="M348.966,48.004c0-2.783,0.504-5.303,1.512-7.56c1.008-2.256,2.388-4.188,4.14-5.796
		s3.816-2.845,6.192-3.708c2.376-0.864,4.907-1.297,7.596-1.297c2.688,0,5.221,0.433,7.597,1.297c2.376,0.863,4.438,2.1,6.191,3.708
		c1.752,1.608,3.132,3.54,4.141,5.796c1.008,2.257,1.512,4.776,1.512,7.56c0,2.784-0.504,5.305-1.512,7.561
		c-1.009,2.256-2.389,4.188-4.141,5.796c-1.753,1.608-3.815,2.844-6.191,3.708c-2.376,0.863-4.909,1.296-7.597,1.296
		c-2.688,0-5.22-0.433-7.596-1.296c-2.376-0.864-4.44-2.1-6.192-3.708s-3.132-3.54-4.14-5.796S348.966,50.788,348.966,48.004z
		 M359.766,48.004c0,2.641,0.756,4.776,2.268,6.408c1.513,1.632,3.637,2.448,6.372,2.448c2.736,0,4.86-0.816,6.372-2.448
		c1.513-1.632,2.269-3.768,2.269-6.408c0-2.639-0.756-4.775-2.269-6.408c-1.512-1.631-3.636-2.447-6.372-2.447
		c-2.735,0-4.859,0.816-6.372,2.447C360.522,43.229,359.766,45.365,359.766,48.004z"/>
</g>
<g enable-background="new    ">
	<path fill="#EB5F53" d="M308.803,58.62c0-1.013,0.187-1.973,0.561-2.88c0.372-0.906,0.893-1.692,1.56-2.36
		c0.666-0.666,1.453-1.187,2.36-1.56c0.906-0.373,1.866-0.561,2.88-0.561c1.013,0,1.973,0.188,2.88,0.561
		c0.906,0.373,1.692,0.894,2.36,1.56c0.666,0.668,1.186,1.454,1.56,2.36c0.373,0.907,0.561,1.867,0.561,2.88
		c0,1.014-0.188,1.974-0.561,2.88c-0.374,0.907-0.894,1.693-1.56,2.36c-0.668,0.667-1.454,1.188-2.36,1.56
		c-0.907,0.373-1.867,0.561-2.88,0.561c-1.014,0-1.974-0.188-2.88-0.561c-0.907-0.372-1.694-0.893-2.36-1.56
		c-0.667-0.667-1.188-1.453-1.56-2.36C308.989,60.594,308.803,59.634,308.803,58.62z"/>
</g>
</svg>
