<?xml version="1.0" encoding="utf-8"?>
<!-- Generator: Adobe Illustrator 17.1.0, SVG Export Plug-In . SVG Version: 6.00 Build 0)  -->
<!DOCTYPE svg PUBLIC "-//W3C//DTD SVG 1.1//EN" "http://www.w3.org/Graphics/SVG/1.1/DTD/svg11.dtd">
<svg version="1.1" xmlns="http://www.w3.org/2000/svg" xmlns:xlink="http://www.w3.org/1999/xlink" x="0px" y="0px"
	 viewBox="0 0 461.1 345.8" enable-background="new 0 0 461.1 345.8" xml:space="preserve">
<g id="Layer_1">
	<g>
		<g>
			<g>
				<path fill="#333333" d="M175.9,212.7v-5.9h-2.1v-0.7h5v0.7h-2.1v5.9H175.9z"/>
				<path fill="#333333" d="M183.7,212.7v-3.2c0-0.9-0.4-1.1-1.1-1.1c-0.6,0-1.1,0.4-1.4,0.7v3.5h-0.7v-6.6h0.7v2.5
					c0.3-0.4,1-0.8,1.7-0.8c1,0,1.5,0.5,1.5,1.5v3.4H183.7z"/>
				<path fill="#333333" d="M186.2,210.3c0-1.4,1-2.5,2.4-2.5c1.5,0,2.3,1.1,2.3,2.6v0.2H187c0.1,0.9,0.7,1.7,1.7,1.7
					c0.6,0,1.1-0.2,1.5-0.6l0.4,0.5c-0.5,0.5-1.1,0.7-1.9,0.7C187.2,212.8,186.2,211.8,186.2,210.3z M188.5,208.4
					c-1,0-1.5,0.9-1.6,1.6h3.2C190.1,209.3,189.6,208.4,188.5,208.4z"/>
				<path fill="#333333" d="M192.6,212.7v-4.8h0.7v0.8c0.4-0.5,0.9-0.9,1.6-0.9v0.8c-0.1,0-0.2,0-0.3,0c-0.5,0-1.1,0.4-1.3,0.8v3.4
					H192.6z"/>
				<path fill="#333333" d="M196.1,210.3c0-1.4,1-2.5,2.4-2.5c1.5,0,2.3,1.1,2.3,2.6v0.2h-3.9c0.1,0.9,0.7,1.7,1.7,1.7
					c0.6,0,1.1-0.2,1.5-0.6l0.4,0.5c-0.5,0.5-1.1,0.7-1.9,0.7C197.2,212.8,196.1,211.8,196.1,210.3z M198.5,208.4
					c-1,0-1.5,0.9-1.6,1.6h3.2C200.1,209.3,199.6,208.4,198.5,208.4z"/>
				<path fill="#333333" d="M208.7,212.7v-0.5c-0.4,0.4-0.9,0.7-1.6,0.7c-0.8,0-1.7-0.5-1.7-1.6c0-1.1,0.9-1.6,1.7-1.6
					c0.7,0,1.2,0.2,1.6,0.6v-0.9c0-0.6-0.5-1-1.2-1c-0.6,0-1,0.2-1.5,0.7l-0.3-0.5c0.5-0.5,1.1-0.8,1.9-0.8c1,0,1.9,0.5,1.9,1.6v3.3
					H208.7z M208.7,211.7v-0.9c-0.3-0.4-0.8-0.6-1.3-0.6c-0.7,0-1.2,0.4-1.2,1c0,0.6,0.5,1.1,1.2,1.1
					C207.9,212.3,208.4,212.1,208.7,211.7z"/>
				<path fill="#333333" d="M211.5,212.7v-4.8h0.7v0.8c0.4-0.5,0.9-0.9,1.6-0.9v0.8c-0.1,0-0.2,0-0.3,0c-0.5,0-1.1,0.4-1.3,0.8v3.4
					H211.5z"/>
				<path fill="#333333" d="M215,210.3c0-1.4,1-2.5,2.4-2.5c1.5,0,2.3,1.1,2.3,2.6v0.2h-3.9c0.1,0.9,0.7,1.7,1.7,1.7
					c0.6,0,1.1-0.2,1.5-0.6l0.4,0.5c-0.5,0.5-1.1,0.7-1.9,0.7C216,212.8,215,211.8,215,210.3z M217.4,208.4c-1,0-1.5,0.9-1.6,1.6
					h3.2C218.9,209.3,218.4,208.4,217.4,208.4z"/>
				<path fill="#333333" d="M227.8,212.7v-3.1c0-0.9-0.4-1.1-1.1-1.1c-0.6,0-1.1,0.4-1.4,0.7v3.5h-0.7v-4.8h0.7v0.7
					c0.3-0.4,1-0.8,1.7-0.8c1,0,1.5,0.5,1.5,1.6v3.4H227.8z"/>
				<path fill="#333333" d="M230.3,210.3c0-1.4,0.9-2.5,2.4-2.5s2.4,1.1,2.4,2.5s-0.9,2.5-2.4,2.5S230.3,211.7,230.3,210.3z
					 M234.2,210.3c0-1-0.6-1.8-1.6-1.8c-1,0-1.6,0.9-1.6,1.8c0,1,0.6,1.9,1.6,1.9C233.7,212.2,234.2,211.3,234.2,210.3z"/>
				<path fill="#333333" d="M239.5,212.1l0.4-0.5c0.3,0.4,0.9,0.7,1.6,0.7c0.7,0,1.1-0.3,1.1-0.8c0-1.2-3-0.4-3-2.2
					c0-0.8,0.6-1.4,1.8-1.4c0.8,0,1.4,0.3,1.8,0.7l-0.3,0.5c-0.3-0.3-0.8-0.6-1.4-0.6c-0.7,0-1.1,0.3-1.1,0.8c0,1,3,0.4,3,2.2
					c0,0.8-0.6,1.5-1.9,1.5C240.6,212.8,240,212.6,239.5,212.1z"/>
				<path fill="#333333" d="M248.3,212.7v-3.1c0-0.9-0.4-1.1-1.1-1.1c-0.6,0-1.1,0.4-1.4,0.7v3.5h-0.7v-4.8h0.7v0.7
					c0.3-0.4,1-0.8,1.7-0.8c1,0,1.5,0.5,1.5,1.6v3.4H248.3z"/>
				<path fill="#333333" d="M254.1,212.7v-0.5c-0.4,0.4-0.9,0.7-1.6,0.7c-0.8,0-1.7-0.5-1.7-1.6c0-1.1,0.9-1.6,1.7-1.6
					c0.7,0,1.2,0.2,1.6,0.6v-0.9c0-0.6-0.5-1-1.2-1c-0.6,0-1,0.2-1.5,0.7l-0.3-0.5c0.5-0.5,1.1-0.8,1.9-0.8c1,0,1.9,0.5,1.9,1.6v3.3
					H254.1z M254.1,211.7v-0.9c-0.3-0.4-0.8-0.6-1.3-0.6c-0.7,0-1.2,0.4-1.2,1c0,0.6,0.5,1.1,1.2,1.1
					C253.3,212.3,253.8,212.1,254.1,211.7z"/>
				<path fill="#333333" d="M257.6,212v2.6h-0.7v-6.6h0.7v0.7c0.3-0.5,0.9-0.8,1.6-0.8c1.3,0,2.1,1,2.1,2.5c0,1.6-0.9,2.5-2.1,2.5
					C258.6,212.8,258,212.5,257.6,212z M260.6,210.3c0-1.1-0.6-1.8-1.5-1.8c-0.6,0-1.2,0.3-1.4,0.8v2.2c0.3,0.4,0.8,0.8,1.4,0.8
					C260,212.2,260.6,211.4,260.6,210.3z"/>
				<path fill="#333333" d="M262.7,212.1l0.4-0.5c0.3,0.4,0.9,0.7,1.6,0.7c0.7,0,1.1-0.3,1.1-0.8c0-1.2-3-0.4-3-2.2
					c0-0.8,0.6-1.4,1.8-1.4c0.8,0,1.4,0.3,1.8,0.7L266,209c-0.3-0.3-0.8-0.6-1.4-0.6c-0.7,0-1.1,0.3-1.1,0.8c0,1,3,0.4,3,2.2
					c0,0.8-0.6,1.5-1.9,1.5C263.8,212.8,263.2,212.6,262.7,212.1z"/>
				<path fill="#333333" d="M271.5,212.7v-3.2c0-0.9-0.4-1.1-1.1-1.1c-0.6,0-1.1,0.4-1.4,0.7v3.5h-0.7v-6.6h0.7v2.5
					c0.3-0.4,1-0.8,1.7-0.8c1,0,1.5,0.5,1.5,1.5v3.4H271.5z"/>
				<path fill="#333333" d="M274,210.3c0-1.4,0.9-2.5,2.4-2.5c1.5,0,2.4,1.1,2.4,2.5s-0.9,2.5-2.4,2.5
					C274.9,212.8,274,211.7,274,210.3z M278,210.3c0-1-0.6-1.8-1.6-1.8s-1.6,0.9-1.6,1.8c0,1,0.6,1.9,1.6,1.9S278,211.3,278,210.3z"
					/>
				<path fill="#333333" d="M280.7,211.7v-3.1h-0.8v-0.7h0.8v-1.3h0.8v1.3h1v0.7h-1v3c0,0.4,0.2,0.6,0.5,0.6c0.2,0,0.4-0.1,0.5-0.2
					l0.2,0.6c-0.2,0.2-0.5,0.3-0.9,0.3C281,212.8,280.7,212.4,280.7,211.7z"/>
				<path fill="#333333" d="M283.6,212.1l0.4-0.5c0.3,0.4,0.9,0.7,1.6,0.7c0.7,0,1.1-0.3,1.1-0.8c0-1.2-3-0.4-3-2.2
					c0-0.8,0.6-1.4,1.8-1.4c0.8,0,1.4,0.3,1.8,0.7l-0.3,0.5c-0.3-0.3-0.8-0.6-1.4-0.6c-0.7,0-1.1,0.3-1.1,0.8c0,1,3,0.4,3,2.2
					c0,0.8-0.6,1.5-1.9,1.5C284.7,212.8,284.1,212.6,283.6,212.1z"/>
				<path fill="#333333" d="M155.7,224.7v-0.5c-0.4,0.4-0.9,0.7-1.6,0.7c-0.8,0-1.7-0.5-1.7-1.6c0-1.1,0.9-1.6,1.7-1.6
					c0.7,0,1.2,0.2,1.6,0.6v-0.9c0-0.6-0.5-1-1.2-1c-0.6,0-1,0.2-1.5,0.7l-0.3-0.5c0.5-0.5,1.1-0.8,1.9-0.8c1,0,1.9,0.5,1.9,1.6v3.3
					H155.7z M155.7,223.6v-0.9c-0.3-0.4-0.8-0.6-1.3-0.6c-0.7,0-1.2,0.4-1.2,1c0,0.6,0.5,1.1,1.2,1.1
					C154.9,224.2,155.4,224,155.7,223.6z"/>
				<path fill="#333333" d="M159.8,224.7l-2-4.8h0.8l1.6,3.9l1.6-3.9h0.8l-2,4.8H159.8z"/>
				<path fill="#333333" d="M166.9,224.7v-0.5c-0.4,0.4-0.9,0.7-1.6,0.7c-0.8,0-1.7-0.5-1.7-1.6c0-1.1,0.9-1.6,1.7-1.6
					c0.7,0,1.2,0.2,1.6,0.6v-0.9c0-0.6-0.5-1-1.2-1c-0.6,0-1,0.2-1.5,0.7l-0.3-0.5c0.5-0.5,1.1-0.8,1.9-0.8c1,0,1.9,0.5,1.9,1.6v3.3
					H166.9z M166.9,223.6v-0.9c-0.3-0.4-0.8-0.6-1.3-0.6c-0.7,0-1.2,0.4-1.2,1c0,0.6,0.5,1.1,1.2,1.1
					C166.1,224.2,166.6,224,166.9,223.6z"/>
				<path fill="#333333" d="M169.6,218.7c0-0.3,0.2-0.5,0.5-0.5c0.3,0,0.5,0.2,0.5,0.5c0,0.3-0.2,0.5-0.5,0.5
					C169.8,219.2,169.6,218.9,169.6,218.7z M169.7,224.7v-4.8h0.7v4.8H169.7z"/>
				<path fill="#333333" d="M172.5,224.7V218h0.7v6.6H172.5z"/>
				<path fill="#333333" d="M178.2,224.7v-0.5c-0.4,0.4-0.9,0.7-1.6,0.7c-0.8,0-1.7-0.5-1.7-1.6c0-1.1,0.9-1.6,1.7-1.6
					c0.7,0,1.2,0.2,1.6,0.6v-0.9c0-0.6-0.5-1-1.2-1c-0.6,0-1,0.2-1.5,0.7l-0.3-0.5c0.5-0.5,1.1-0.8,1.9-0.8c1,0,1.9,0.5,1.9,1.6v3.3
					H178.2z M178.2,223.6v-0.9c-0.3-0.4-0.8-0.6-1.3-0.6c-0.7,0-1.2,0.4-1.2,1c0,0.6,0.5,1.1,1.2,1.1
					C177.4,224.2,178,224,178.2,223.6z"/>
				<path fill="#333333" d="M181,224.7V218h0.7v2.6c0.4-0.5,1-0.8,1.6-0.8c1.3,0,2.1,1,2.1,2.5c0,1.6-0.9,2.5-2.1,2.5
					c-0.7,0-1.3-0.3-1.6-0.8v0.7H181z M183.2,224.1c1,0,1.5-0.8,1.5-1.8c0-1.1-0.6-1.9-1.5-1.9c-0.6,0-1.2,0.4-1.4,0.8v2.2
					C182,223.8,182.6,224.1,183.2,224.1z"/>
				<path fill="#333333" d="M187.3,224.7V218h0.7v6.6H187.3z"/>
				<path fill="#333333" d="M189.8,222.2c0-1.4,1-2.5,2.4-2.5c1.5,0,2.3,1.1,2.3,2.6v0.2h-3.9c0.1,0.9,0.7,1.7,1.7,1.7
					c0.6,0,1.1-0.2,1.5-0.6l0.4,0.5c-0.5,0.5-1.1,0.7-1.9,0.7C190.8,224.8,189.8,223.7,189.8,222.2z M192.1,220.3
					c-1,0-1.5,0.9-1.6,1.6h3.2C193.7,221.2,193.2,220.3,192.1,220.3z"/>
				<path fill="#333333" d="M199.5,224.7v-4.1h-0.8v-0.7h0.8v-0.4c0-1,0.5-1.6,1.4-1.6c0.4,0,0.7,0.1,1,0.4l-0.3,0.5
					c-0.2-0.1-0.3-0.2-0.6-0.2c-0.5,0-0.8,0.3-0.8,0.9v0.4h1v0.7h-1v4.1H199.5z"/>
				<path fill="#333333" d="M202.4,222.2c0-1.4,0.9-2.5,2.4-2.5s2.4,1.1,2.4,2.5s-0.9,2.5-2.4,2.5S202.4,223.6,202.4,222.2z
					 M206.4,222.2c0-1-0.6-1.8-1.6-1.8c-1,0-1.6,0.9-1.6,1.8c0,1,0.6,1.9,1.6,1.9C205.8,224.1,206.4,223.2,206.4,222.2z"/>
				<path fill="#333333" d="M208.9,224.7v-4.8h0.7v0.8c0.4-0.5,0.9-0.9,1.6-0.9v0.8c-0.1,0-0.2,0-0.3,0c-0.5,0-1.1,0.4-1.3,0.8v3.4
					H208.9z"/>
				<path fill="#333333" d="M216,223.6v-3.1h-0.8v-0.7h0.8v-1.3h0.8v1.3h1v0.7h-1v3c0,0.4,0.2,0.6,0.5,0.6c0.2,0,0.4-0.1,0.5-0.2
					l0.2,0.6c-0.2,0.2-0.5,0.3-0.9,0.3C216.3,224.8,216,224.4,216,223.6z"/>
				<path fill="#333333" d="M222.5,224.7v-3.2c0-0.9-0.4-1.1-1.1-1.1c-0.6,0-1.1,0.4-1.4,0.7v3.5h-0.7V218h0.7v2.5
					c0.3-0.4,1-0.8,1.7-0.8c1,0,1.5,0.5,1.5,1.5v3.4H222.5z"/>
				<path fill="#333333" d="M225,222.2c0-1.4,1-2.5,2.4-2.5c1.5,0,2.3,1.1,2.3,2.6v0.2h-3.9c0.1,0.9,0.7,1.7,1.7,1.7
					c0.6,0,1.1-0.2,1.5-0.6l0.4,0.5c-0.5,0.5-1.1,0.7-1.9,0.7C226.1,224.8,225,223.7,225,222.2z M227.4,220.3c-1,0-1.5,0.9-1.6,1.6
					h3.2C229,221.2,228.5,220.3,227.4,220.3z"/>
				<path fill="#333333" d="M234.2,224l0.4-0.5c0.3,0.4,0.9,0.7,1.6,0.7c0.7,0,1.1-0.3,1.1-0.8c0-1.2-3-0.4-3-2.2
					c0-0.8,0.6-1.4,1.8-1.4c0.8,0,1.4,0.3,1.8,0.7l-0.3,0.5c-0.3-0.3-0.8-0.6-1.4-0.6c-0.7,0-1.1,0.3-1.1,0.8c0,1,3,0.4,3,2.2
					c0,0.8-0.6,1.5-1.9,1.5C235.3,224.8,234.7,224.5,234.2,224z"/>
				<path fill="#333333" d="M239.5,222.2c0-1.4,1-2.5,2.4-2.5c1.5,0,2.3,1.1,2.3,2.6v0.2h-3.9c0.1,0.9,0.7,1.7,1.7,1.7
					c0.6,0,1.1-0.2,1.5-0.6l0.4,0.5c-0.5,0.5-1.1,0.7-1.9,0.7C240.5,224.8,239.5,223.7,239.5,222.2z M241.8,220.3
					c-1,0-1.5,0.9-1.6,1.6h3.2C243.4,221.2,242.9,220.3,241.8,220.3z"/>
				<path fill="#333333" d="M245.9,224.7V218h0.7v6.6H245.9z"/>
				<path fill="#333333" d="M248.4,222.2c0-1.4,1-2.5,2.4-2.5c1.5,0,2.3,1.1,2.3,2.6v0.2h-3.9c0.1,0.9,0.7,1.7,1.7,1.7
					c0.6,0,1.1-0.2,1.5-0.6l0.4,0.5c-0.5,0.5-1.1,0.7-1.9,0.7C249.4,224.8,248.4,223.7,248.4,222.2z M250.7,220.3
					c-1,0-1.5,0.9-1.6,1.6h3.2C252.3,221.2,251.8,220.3,250.7,220.3z"/>
				<path fill="#333333" d="M254.5,222.2c0-1.4,1-2.5,2.4-2.5c0.9,0,1.4,0.4,1.8,0.8l-0.5,0.4c-0.3-0.4-0.7-0.6-1.2-0.6
					c-1,0-1.7,0.8-1.7,1.8c0,1.1,0.6,1.9,1.7,1.9c0.5,0,0.9-0.2,1.2-0.6l0.5,0.5c-0.4,0.5-0.9,0.8-1.8,0.8
					C255.5,224.8,254.5,223.7,254.5,222.2z"/>
				<path fill="#333333" d="M260.4,223.6v-3.1h-0.8v-0.7h0.8v-1.3h0.8v1.3h1v0.7h-1v3c0,0.4,0.2,0.6,0.5,0.6c0.2,0,0.4-0.1,0.5-0.2
					l0.2,0.6c-0.2,0.2-0.5,0.3-0.9,0.3C260.8,224.8,260.4,224.4,260.4,223.6z"/>
				<path fill="#333333" d="M263.4,222.2c0-1.4,1-2.5,2.4-2.5c1.5,0,2.3,1.1,2.3,2.6v0.2h-3.9c0.1,0.9,0.7,1.7,1.7,1.7
					c0.6,0,1.1-0.2,1.5-0.6l0.4,0.5c-0.5,0.5-1.1,0.7-1.9,0.7C264.5,224.8,263.4,223.7,263.4,222.2z M265.8,220.3
					c-1,0-1.5,0.9-1.6,1.6h3.2C267.4,221.2,266.9,220.3,265.8,220.3z"/>
				<path fill="#333333" d="M273.3,224.7v-0.7c-0.4,0.5-0.9,0.8-1.6,0.8c-1.3,0-2.1-1-2.1-2.5c0-1.5,0.9-2.5,2.1-2.5
					c0.6,0,1.2,0.3,1.6,0.8V218h0.7v6.6H273.3z M273.3,223.3v-2.2c-0.3-0.4-0.8-0.8-1.4-0.8c-1,0-1.6,0.8-1.6,1.9
					c0,1.1,0.6,1.8,1.6,1.8C272.5,224.1,273.1,223.8,273.3,223.3z"/>
				<path fill="#333333" d="M280,223.9v2.6h-0.7v-6.6h0.7v0.7c0.3-0.5,0.9-0.8,1.6-0.8c1.3,0,2.1,1,2.1,2.5c0,1.6-0.9,2.5-2.1,2.5
					C280.9,224.8,280.4,224.5,280,223.9z M283,222.2c0-1.1-0.6-1.8-1.5-1.8c-0.6,0-1.2,0.3-1.4,0.8v2.2c0.3,0.4,0.8,0.8,1.4,0.8
					C282.4,224.1,283,223.3,283,222.2z"/>
				<path fill="#333333" d="M285.2,222.2c0-1.4,1-2.5,2.4-2.5c1.5,0,2.3,1.1,2.3,2.6v0.2H286c0.1,0.9,0.7,1.7,1.7,1.7
					c0.6,0,1.1-0.2,1.5-0.6l0.4,0.5c-0.5,0.5-1.1,0.7-1.9,0.7C286.2,224.8,285.2,223.7,285.2,222.2z M287.5,220.3
					c-1,0-1.5,0.9-1.6,1.6h3.2C289.1,221.2,288.6,220.3,287.5,220.3z"/>
				<path fill="#333333" d="M291.6,224.7v-4.8h0.7v0.8c0.4-0.5,0.9-0.9,1.6-0.9v0.8c-0.1,0-0.2,0-0.3,0c-0.5,0-1.1,0.4-1.3,0.8v3.4
					H291.6z"/>
				<path fill="#333333" d="M295.3,218.7c0-0.3,0.2-0.5,0.5-0.5c0.3,0,0.5,0.2,0.5,0.5c0,0.3-0.2,0.5-0.5,0.5
					C295.5,219.2,295.3,218.9,295.3,218.7z M295.4,224.7v-4.8h0.7v4.8H295.4z"/>
				<path fill="#333333" d="M297.9,222.2c0-1.4,0.9-2.5,2.4-2.5c1.5,0,2.4,1.1,2.4,2.5s-0.9,2.5-2.4,2.5
					C298.8,224.8,297.9,223.6,297.9,222.2z M301.9,222.2c0-1-0.6-1.8-1.6-1.8c-1,0-1.6,0.9-1.6,1.8c0,1,0.6,1.9,1.6,1.9
					C301.3,224.1,301.9,223.2,301.9,222.2z"/>
				<path fill="#333333" d="M307.9,224.7v-0.7c-0.4,0.5-0.9,0.8-1.6,0.8c-1.3,0-2.1-1-2.1-2.5c0-1.5,0.9-2.5,2.1-2.5
					c0.6,0,1.2,0.3,1.6,0.8V218h0.7v6.6H307.9z M307.9,223.3v-2.2c-0.3-0.4-0.8-0.8-1.4-0.8c-1,0-1.6,0.8-1.6,1.9
					c0,1.1,0.6,1.8,1.6,1.8C307.1,224.1,307.6,223.8,307.9,223.3z"/>
			</g>
		</g>
		<g>
			<g>
				<path fill="#333333" d="M350.1,23.6v-5.4h-1.9v-0.7h4.6v0.7h-1.9v5.4H350.1z"/>
				<path fill="#333333" d="M357.2,23.6v-2.9c0-0.8-0.4-1-1-1c-0.5,0-1,0.3-1.3,0.7v3.2h-0.7v-6h0.7v2.3c0.3-0.4,0.9-0.7,1.6-0.7
					c0.9,0,1.4,0.4,1.4,1.4v3.1H357.2z"/>
				<path fill="#333333" d="M359.5,21.4c0-1.3,0.9-2.3,2.2-2.3c1.3,0,2.1,1,2.1,2.3v0.2h-3.5c0.1,0.8,0.6,1.5,1.6,1.5
					c0.5,0,1-0.2,1.4-0.6l0.3,0.4c-0.4,0.4-1,0.7-1.7,0.7C360.5,23.7,359.5,22.8,359.5,21.4z M361.7,19.7c-0.9,0-1.4,0.8-1.4,1.5
					h2.9C363.1,20.5,362.7,19.7,361.7,19.7z"/>
				<path fill="#333333" d="M371.4,23.6v-0.7c-0.3,0.4-0.9,0.8-1.5,0.8c-1.1,0-1.9-0.9-1.9-2.3c0-1.4,0.8-2.3,1.9-2.3
					c0.6,0,1.1,0.3,1.5,0.8v-2.3h0.7v6H371.4z M371.4,22.4v-2c-0.2-0.4-0.8-0.7-1.3-0.7c-0.9,0-1.4,0.7-1.4,1.7c0,1,0.5,1.7,1.4,1.7
					C370.6,23.1,371.2,22.8,371.4,22.4z"/>
				<path fill="#333333" d="M376.7,23.6v-0.5c-0.4,0.4-0.9,0.6-1.5,0.6c-0.7,0-1.5-0.5-1.5-1.5c0-1,0.8-1.4,1.5-1.4
					c0.6,0,1.1,0.2,1.5,0.6v-0.8c0-0.6-0.5-0.9-1.1-0.9c-0.5,0-1,0.2-1.3,0.6l-0.3-0.5c0.5-0.5,1-0.7,1.7-0.7c0.9,0,1.7,0.4,1.7,1.5
					v3H376.7z M376.7,22.7v-0.8c-0.3-0.4-0.7-0.5-1.2-0.5c-0.6,0-1.1,0.4-1.1,1c0,0.6,0.4,1,1.1,1C375.9,23.2,376.4,23,376.7,22.7z"
					/>
				<path fill="#333333" d="M379.3,22.7v-2.9h-0.7v-0.6h0.7V18h0.7v1.2h0.9v0.6H380v2.7c0,0.3,0.1,0.6,0.4,0.6
					c0.2,0,0.4-0.1,0.5-0.2l0.2,0.5c-0.2,0.2-0.4,0.3-0.8,0.3C379.7,23.7,379.3,23.3,379.3,22.7z"/>
				<path fill="#333333" d="M382.1,21.4c0-1.3,0.9-2.3,2.2-2.3c1.3,0,2.1,1,2.1,2.3v0.2h-3.5c0.1,0.8,0.6,1.5,1.6,1.5
					c0.5,0,1-0.2,1.4-0.6l0.3,0.4c-0.4,0.4-1,0.7-1.7,0.7C383,23.7,382.1,22.8,382.1,21.4z M384.2,19.7c-0.9,0-1.4,0.8-1.4,1.5h2.9
					C385.7,20.5,385.2,19.7,384.2,19.7z"/>
				<path fill="#333333" d="M387.6,23l0.3-0.5c0.3,0.3,0.8,0.6,1.4,0.6c0.7,0,1-0.3,1-0.8c0-1.1-2.7-0.4-2.7-2
					c0-0.7,0.6-1.3,1.6-1.3c0.8,0,1.3,0.3,1.6,0.6l-0.3,0.5c-0.3-0.3-0.7-0.6-1.3-0.6c-0.6,0-1,0.3-1,0.7c0,1,2.7,0.3,2.7,2
					c0,0.7-0.6,1.3-1.7,1.3C388.6,23.7,388,23.5,387.6,23z"/>
				<path fill="#333333" d="M395.4,18.1c0-0.3,0.2-0.5,0.5-0.5c0.3,0,0.5,0.2,0.5,0.5c0,0.3-0.2,0.5-0.5,0.5
					C395.6,18.6,395.4,18.4,395.4,18.1z M395.5,23.6v-4.4h0.7v4.4H395.5z"/>
				<path fill="#333333" d="M401,23.6v-2.9c0-0.8-0.4-1-1-1c-0.5,0-1,0.3-1.3,0.7v3.2H398v-4.4h0.7v0.6c0.3-0.4,0.9-0.7,1.6-0.7
					c0.9,0,1.4,0.5,1.4,1.4v3.1H401z"/>
				<path fill="#428BCA" d="M406.3,23.6v-6h1.2v2.2c0.3-0.5,0.8-0.7,1.4-0.7c1.1,0,1.9,0.9,1.9,2.3c0,1.5-0.8,2.3-1.9,2.3
					c-0.5,0-1-0.2-1.4-0.7v0.6H406.3z M408.4,22.7c0.7,0,1.1-0.5,1.1-1.3c0-0.8-0.4-1.3-1.1-1.3c-0.4,0-0.8,0.2-1,0.5v1.6
					C407.6,22.5,408,22.7,408.4,22.7z"/>
				<path fill="#428BCA" d="M412.1,23.6v-6h1.2v6H412.1z"/>
				<path fill="#428BCA" d="M417.8,23.6V23c-0.3,0.3-0.8,0.7-1.5,0.7c-1,0-1.4-0.5-1.4-1.4v-3.1h1.2v2.7c0,0.6,0.3,0.8,0.8,0.8
					c0.4,0,0.8-0.2,1-0.5v-3h1.2v4.4H417.8z"/>
				<path fill="#428BCA" d="M420.3,21.4c0-1.3,0.9-2.3,2.3-2.3c1.3,0,2.2,1,2.2,2.4v0.3h-3.3c0.1,0.5,0.5,1,1.3,1
					c0.4,0,0.9-0.2,1.2-0.4l0.5,0.8c-0.4,0.4-1.1,0.6-1.8,0.6C421.3,23.7,420.3,22.8,420.3,21.4z M422.6,20.1c-0.7,0-1,0.5-1.1,0.9
					h2.2C423.6,20.6,423.3,20.1,422.6,20.1z"/>
				<path fill="#333333" d="M432,23.6v-2.9c0-0.8-0.4-1-1-1c-0.5,0-1,0.3-1.3,0.7v3.2H429v-6h0.7v2.3c0.3-0.4,0.9-0.7,1.6-0.7
					c0.9,0,1.4,0.4,1.4,1.4v3.1H432z"/>
				<path fill="#333333" d="M437.3,23.6v-0.5c-0.4,0.4-0.9,0.6-1.5,0.6c-0.7,0-1.5-0.5-1.5-1.5c0-1,0.8-1.4,1.5-1.4
					c0.6,0,1.1,0.2,1.5,0.6v-0.8c0-0.6-0.5-0.9-1.1-0.9c-0.5,0-1,0.2-1.3,0.6l-0.3-0.5c0.5-0.5,1-0.7,1.8-0.7c0.9,0,1.7,0.4,1.7,1.5
					v3H437.3z M437.3,22.7v-0.8c-0.3-0.4-0.7-0.5-1.2-0.5c-0.6,0-1.1,0.4-1.1,1c0,0.6,0.4,1,1.1,1C436.5,23.2,437,23,437.3,22.7z"/>
				<path fill="#333333" d="M441,23.6l-1.8-4.4h0.7l1.5,3.6l1.5-3.6h0.7l-1.8,4.4H441z"/>
				<path fill="#333333" d="M444.5,21.4c0-1.3,0.9-2.3,2.2-2.3c1.3,0,2.1,1,2.1,2.3v0.2h-3.5c0.1,0.8,0.6,1.5,1.6,1.5
					c0.5,0,1-0.2,1.4-0.6l0.3,0.4c-0.4,0.4-1,0.7-1.7,0.7C445.4,23.7,444.5,22.8,444.5,21.4z M446.6,19.7c-0.9,0-1.4,0.8-1.4,1.5
					h2.9C448.1,20.5,447.6,19.7,446.6,19.7z"/>
				<path fill="#333333" d="M373.9,33.9l0.3-0.5c0.3,0.3,0.8,0.6,1.4,0.6c0.7,0,1-0.3,1-0.8c0-1.1-2.7-0.4-2.7-2
					c0-0.7,0.6-1.3,1.6-1.3c0.8,0,1.3,0.3,1.6,0.6l-0.3,0.5c-0.3-0.3-0.7-0.6-1.3-0.6c-0.6,0-1,0.3-1,0.7c0,1,2.7,0.3,2.7,2
					c0,0.7-0.6,1.3-1.7,1.3C374.9,34.6,374.3,34.4,373.9,33.9z"/>
				<path fill="#333333" d="M379.1,33.6v-2.9h-0.7v-0.6h0.7v-1.2h0.7v1.2h0.9v0.6h-0.9v2.7c0,0.3,0.1,0.6,0.4,0.6
					c0.2,0,0.4-0.1,0.5-0.2l0.2,0.5c-0.2,0.2-0.4,0.3-0.8,0.3C379.4,34.6,379.1,34.2,379.1,33.6z"/>
				<path fill="#333333" d="M381.9,32.3c0-1.3,0.8-2.3,2.2-2.3c1.3,0,2.2,1,2.2,2.3c0,1.3-0.8,2.3-2.2,2.3
					C382.7,34.6,381.9,33.6,381.9,32.3z M385.5,32.3c0-0.9-0.5-1.7-1.5-1.7s-1.5,0.8-1.5,1.7c0,0.9,0.5,1.7,1.5,1.7
					S385.5,33.2,385.5,32.3z"/>
				<path fill="#333333" d="M387.8,34.5v-4.4h0.7v0.7c0.4-0.5,0.9-0.8,1.5-0.8v0.7c-0.1,0-0.2,0-0.3,0c-0.4,0-1,0.3-1.2,0.7v3.1
					H387.8z"/>
				<path fill="#333333" d="M391,32.3c0-1.3,0.9-2.3,2.2-2.3c1.3,0,2.1,1,2.1,2.3v0.2h-3.5c0.1,0.8,0.6,1.5,1.6,1.5
					c0.5,0,1-0.2,1.4-0.6l0.3,0.4c-0.4,0.4-1,0.7-1.7,0.7C392,34.6,391,33.7,391,32.3z M393.2,30.6c-0.9,0-1.4,0.8-1.4,1.5h2.9
					C394.6,31.4,394.2,30.6,393.2,30.6z"/>
				<path fill="#333333" d="M400,34.5v-0.7c-0.3,0.4-0.9,0.8-1.5,0.8c-1.1,0-1.9-0.9-1.9-2.3c0-1.4,0.8-2.3,1.9-2.3
					c0.6,0,1.1,0.3,1.5,0.8v-2.3h0.7v6H400z M400,33.3v-2c-0.2-0.4-0.8-0.7-1.3-0.7c-0.9,0-1.4,0.7-1.4,1.7c0,1,0.5,1.7,1.4,1.7
					C399.3,34,399.8,33.7,400,33.3z"/>
				<path fill="#333333" d="M405,33.9l0.3-0.5c0.3,0.3,0.8,0.6,1.4,0.6c0.7,0,1-0.3,1-0.8c0-1.1-2.7-0.4-2.7-2
					c0-0.7,0.6-1.3,1.6-1.3c0.8,0,1.3,0.3,1.6,0.6l-0.3,0.5c-0.3-0.3-0.7-0.6-1.3-0.6c-0.6,0-1,0.3-1,0.7c0,1,2.7,0.3,2.7,2
					c0,0.7-0.6,1.3-1.7,1.3C406.1,34.6,405.5,34.4,405,33.9z"/>
				<path fill="#333333" d="M413.1,34.5v-2.9c0-0.8-0.4-1-1-1c-0.5,0-1,0.3-1.3,0.7v3.2h-0.7v-4.4h0.7v0.6c0.3-0.4,0.9-0.7,1.6-0.7
					c0.9,0,1.4,0.5,1.4,1.4v3.1H413.1z"/>
				<path fill="#333333" d="M418.4,34.5V34c-0.4,0.4-0.9,0.6-1.5,0.6c-0.7,0-1.5-0.5-1.5-1.5c0-1,0.8-1.4,1.5-1.4
					c0.6,0,1.1,0.2,1.5,0.6v-0.8c0-0.6-0.5-0.9-1.1-0.9c-0.5,0-1,0.2-1.3,0.6l-0.3-0.5c0.5-0.5,1-0.7,1.7-0.7c0.9,0,1.7,0.4,1.7,1.5
					v3H418.4z M418.4,33.6v-0.8c-0.3-0.4-0.7-0.5-1.2-0.5c-0.6,0-1.1,0.4-1.1,1c0,0.6,0.4,1,1.1,1C417.6,34.1,418.1,33.9,418.4,33.6
					z"/>
				<path fill="#333333" d="M421.6,33.8v2.3h-0.7v-6h0.7v0.7c0.3-0.4,0.9-0.8,1.5-0.8c1.2,0,1.9,0.9,1.9,2.3c0,1.4-0.8,2.3-1.9,2.3
					C422.5,34.6,421.9,34.3,421.6,33.8z M424.3,32.3c0-1-0.5-1.7-1.4-1.7c-0.5,0-1.1,0.3-1.3,0.7v2c0.2,0.4,0.8,0.7,1.3,0.7
					C423.8,34,424.3,33.3,424.3,32.3z"/>
				<path fill="#333333" d="M426.2,33.9l0.3-0.5c0.3,0.3,0.8,0.6,1.4,0.6c0.7,0,1-0.3,1-0.8c0-1.1-2.7-0.4-2.7-2
					c0-0.7,0.6-1.3,1.6-1.3c0.8,0,1.3,0.3,1.6,0.6l-0.3,0.5c-0.3-0.3-0.7-0.6-1.3-0.6c-0.6,0-1,0.3-1,0.7c0,1,2.7,0.3,2.7,2
					c0,0.7-0.6,1.3-1.7,1.3C427.3,34.6,426.7,34.4,426.2,33.9z"/>
				<path fill="#333333" d="M434.3,34.5v-2.9c0-0.8-0.4-1-1-1c-0.5,0-1,0.3-1.3,0.7v3.2h-0.7v-6h0.7v2.3c0.3-0.4,0.9-0.7,1.6-0.7
					c0.9,0,1.4,0.4,1.4,1.4v3.1H434.3z"/>
				<path fill="#333333" d="M436.5,32.3c0-1.3,0.8-2.3,2.2-2.3c1.3,0,2.2,1,2.2,2.3c0,1.3-0.8,2.3-2.2,2.3
					C437.4,34.6,436.5,33.6,436.5,32.3z M440.1,32.3c0-0.9-0.5-1.7-1.5-1.7s-1.5,0.8-1.5,1.7c0,0.9,0.5,1.7,1.5,1.7
					S440.1,33.2,440.1,32.3z"/>
				<path fill="#333333" d="M442.6,33.6v-2.9h-0.7v-0.6h0.7v-1.2h0.7v1.2h0.9v0.6h-0.9v2.7c0,0.3,0.1,0.6,0.4,0.6
					c0.2,0,0.4-0.1,0.5-0.2l0.2,0.5c-0.2,0.2-0.4,0.3-0.8,0.3C442.9,34.6,442.6,34.2,442.6,33.6z"/>
				<path fill="#333333" d="M445.2,33.9l0.3-0.5c0.3,0.3,0.8,0.6,1.4,0.6c0.7,0,1-0.3,1-0.8c0-1.1-2.7-0.4-2.7-2
					c0-0.7,0.6-1.3,1.6-1.3c0.8,0,1.3,0.3,1.6,0.6l-0.3,0.5c-0.3-0.3-0.7-0.6-1.3-0.6c-0.6,0-1,0.3-1,0.7c0,1,2.7,0.3,2.7,2
					c0,0.7-0.6,1.3-1.7,1.3C446.3,34.6,445.7,34.4,445.2,33.9z"/>
			</g>
		</g>
		<g>
			<g>
				<rect x="207.4" y="147.2" fill="none" stroke="#333333" stroke-width="2" stroke-miterlimit="10" width="45" height="34.6"/>
			</g>
			<polyline fill="none" stroke="#414042" stroke-width="2" stroke-miterlimit="10" points="215.2,145.5 215.2,140.3 261,140.3 
				261,174.9 254.1,174.9 			"/>
			<polyline fill="none" stroke="#333333" stroke-width="2" stroke-miterlimit="10" points="207.4,173.2 219.5,161 231.6,174.9 
				240.3,169.7 252.4,180.1 			"/>
			<circle fill="none" stroke="#333333" stroke-width="2" stroke-miterlimit="10" cx="241.1" cy="158.5" r="4.3"/>
			<g>
				<circle fill="#DC4C3F" cx="208.8" cy="180.7" r="8"/>
				<g>
					<path fill="#FFFFFF" d="M208.8,190.6c-5.4,0-9.8-4.4-9.8-9.8s4.4-9.8,9.8-9.8c5.4,0,9.8,4.4,9.8,9.8
						C218.6,186.2,214.2,190.6,208.8,190.6L208.8,190.6z M201.5,180.8c0,4,3.3,7.3,7.3,7.3c1.6,0,3-0.5,4.2-1.4l-10.2-10.2
						C202,177.8,201.5,179.2,201.5,180.8L201.5,180.8z M208.8,173.5c-1.6,0-3,0.5-4.2,1.4l10.2,10.2c0.9-1.2,1.4-2.7,1.4-4.2
						C216.2,176.8,212.9,173.5,208.8,173.5L208.8,173.5z"/>
				</g>
			</g>
		</g>
	</g>
</g>
<g id="Creative_Commons_License" display="none">
	
		<text id="Creative_Commons_License_1_" transform="matrix(1 0 0 1 2 470.0439)" display="inline" font-family="'MyriadPro-Regular'" font-size="12">With assets by Budi Tanrim / CC BY</text>
</g>
<g id="Left_Arrow">
	<path fill="#428BCA" d="M436.5,44.6h9.9l-2.4,2.4c-0.2,0.2-0.2,0.5,0,0.8c0.2,0.2,0.5,0.2,0.8,0l3.3-3.3c0.2-0.2,0.2-0.5,0-0.8
		l-3.3-3.3c-0.1-0.1-0.2-0.2-0.4-0.2c-0.1,0-0.3,0.1-0.4,0.2c-0.2,0.2-0.2,0.5,0,0.8l2.4,2.4h-9.9c-0.3,0-0.5,0.2-0.5,0.5
		S436.3,44.6,436.5,44.6z"/>
</g>
</svg>
