<?xml version="1.0" encoding="utf-8"?>
<!-- Generator: Adobe Illustrator 17.1.0, SVG Export Plug-In . SVG Version: 6.00 Build 0)  -->
<!DOCTYPE svg PUBLIC "-//W3C//DTD SVG 1.1//EN" "http://www.w3.org/Graphics/SVG/1.1/DTD/svg11.dtd">
<svg version="1.1" xmlns="http://www.w3.org/2000/svg" xmlns:xlink="http://www.w3.org/1999/xlink" x="0px" y="0px"
	 viewBox="0 0 461.1 345.8" enable-background="new 0 0 461.1 345.8" xml:space="preserve">
<g id="Layer_1">
	<g>
		<g>
			<rect x="142.4" y="191.9" fill="none" width="176.4" height="92.5"/>
			<text transform="matrix(1 0 0 1 154.7895 201.2077)"><tspan x="0" y="0" fill="#333333" font-family="'ProximaNova-Regular'" font-size="14">We failed to retrieve a </tspan><tspan x="-9.3" y="16.8" fill="#333333" font-family="'ProximaNova-Regular'" font-size="14">snaphot from the camera</tspan></text>
		</g>
		<g>
			<g>
				<rect x="207.4" y="125.2" fill="none" stroke="#333333" stroke-width="2" stroke-miterlimit="10" width="45" height="34.6"/>
			</g>
			<polyline fill="none" stroke="#414042" stroke-width="2" stroke-miterlimit="10" points="215.2,123.5 215.2,118.3 261,118.3 
				261,152.9 254.1,152.9 			"/>
			<polyline fill="none" stroke="#333333" stroke-width="2" stroke-miterlimit="10" points="207.4,151.2 219.5,139 231.6,152.9 
				240.3,147.7 252.4,158.1 			"/>
			<circle fill="none" stroke="#333333" stroke-width="2" stroke-miterlimit="10" cx="241.1" cy="136.5" r="4.3"/>
			<g>
				<circle fill="#DC4C3F" cx="208.8" cy="158.7" r="8"/>
				<g>
					<path fill="#FFFFFF" d="M208.8,168.6c-5.4,0-9.8-4.4-9.8-9.8s4.4-9.8,9.8-9.8c5.4,0,9.8,4.4,9.8,9.8
						C218.6,164.2,214.2,168.6,208.8,168.6L208.8,168.6z M201.5,158.8c0,4,3.3,7.3,7.3,7.3c1.6,0,3-0.5,4.2-1.4l-10.2-10.2
						C202,155.8,201.5,157.2,201.5,158.8L201.5,158.8z M208.8,151.5c-1.6,0-3,0.5-4.2,1.4l10.2,10.2c0.9-1.2,1.4-2.7,1.4-4.2
						C216.2,154.8,212.9,151.5,208.8,151.5L208.8,151.5z"/>
				</g>
			</g>
		</g>
	</g>
</g>
<g id="Creative_Commons_License" display="none">
	
		<text id="Creative_Commons_License_1_" transform="matrix(1 0 0 1 2 470.0439)" display="inline" font-family="'MyriadPro-Regular'" font-size="12">With assets by Budi Tanrim / CC BY</text>
</g>
</svg>
