<?xml version="1.0" encoding="utf-8"?>
<!-- Generator: Adobe Illustrator 17.1.0, SVG Export Plug-In . SVG Version: 6.00 Build 0)  -->
<!DOCTYPE svg PUBLIC "-//W3C//DTD SVG 1.1//EN" "http://www.w3.org/Graphics/SVG/1.1/DTD/svg11.dtd">
<svg version="1.1" xmlns="http://www.w3.org/2000/svg" xmlns:xlink="http://www.w3.org/1999/xlink" x="0px" y="0px"
	 viewBox="0 0 461.1 345.8" enable-background="new 0 0 461.1 345.8" xml:space="preserve">
<g id="Layer_1">
	<g>
		<g>
			<g>
				<path fill="#333333" d="M172.9,199.9l-1.8-6.5l-1.8,6.5h-1.1l-2.3-8h1.1l1.8,6.7l1.8-6.7h0.8l1.8,6.7l1.8-6.7h1.1l-2.3,8H172.9z
					"/>
				<path fill="#333333" d="M177.2,197c0-1.7,1.2-3,2.9-3c1.8,0,2.8,1.4,2.8,3.1v0.2h-4.7c0.1,1.1,0.8,2,2.1,2
					c0.7,0,1.3-0.3,1.8-0.7l0.4,0.6c-0.6,0.6-1.4,0.9-2.3,0.9C178.4,200,177.2,198.8,177.2,197z M180,194.7c-1.2,0-1.8,1-1.9,1.9
					h3.8C181.9,195.7,181.3,194.7,180,194.7z"/>
				<path fill="#333333" d="M188.9,199.9v-5h-1v-0.8h1v-0.4c0-1.2,0.7-1.9,1.7-1.9c0.5,0,0.9,0.1,1.2,0.4l-0.4,0.6
					c-0.2-0.2-0.4-0.3-0.7-0.3c-0.6,0-0.9,0.4-0.9,1.1v0.4h1.2v0.8h-1.2v5H188.9z"/>
				<path fill="#333333" d="M196.4,199.9v-0.7c-0.5,0.5-1.1,0.8-1.9,0.8c-1,0-2-0.7-2-1.9c0-1.3,1-1.9,2-1.9c0.8,0,1.5,0.3,1.9,0.8
					v-1c0-0.8-0.6-1.2-1.5-1.2c-0.7,0-1.3,0.2-1.8,0.8l-0.4-0.6c0.6-0.6,1.4-1,2.3-1c1.2,0,2.2,0.6,2.2,2v4H196.4z M196.4,198.7
					v-1.1c-0.3-0.5-1-0.7-1.6-0.7c-0.9,0-1.4,0.5-1.4,1.3c0,0.7,0.6,1.3,1.4,1.3C195.4,199.4,196,199.1,196.4,198.7z"/>
				<path fill="#333333" d="M199.6,192.7c0-0.3,0.3-0.6,0.6-0.6c0.3,0,0.6,0.3,0.6,0.6c0,0.3-0.3,0.6-0.6,0.6
					C199.8,193.3,199.6,193,199.6,192.7z M199.7,199.9v-5.8h0.9v5.8H199.7z"/>
				<path fill="#333333" d="M203.1,199.9v-8h0.9v8H203.1z"/>
				<path fill="#333333" d="M206.1,197c0-1.7,1.2-3,2.9-3c1.8,0,2.8,1.4,2.8,3.1v0.2H207c0.1,1.1,0.8,2,2.1,2c0.7,0,1.3-0.3,1.8-0.7
					l0.4,0.6c-0.6,0.6-1.4,0.9-2.3,0.9C207.3,200,206.1,198.8,206.1,197z M208.9,194.7c-1.2,0-1.8,1-1.9,1.9h3.8
					C210.8,195.7,210.2,194.7,208.9,194.7z"/>
				<path fill="#333333" d="M218,199.9V199c-0.4,0.6-1.1,1-2,1c-1.5,0-2.6-1.2-2.6-3c0-1.9,1.1-3,2.6-3c0.8,0,1.5,0.4,2,1v-3.1h0.9
					v8H218z M218,198.3v-2.6c-0.3-0.5-1-0.9-1.7-0.9c-1.2,0-1.9,1-1.9,2.2c0,1.3,0.7,2.2,1.9,2.2C217,199.2,217.7,198.8,218,198.3z"
					/>
				<path fill="#333333" d="M225.3,198.7v-3.8h-1v-0.8h1v-1.6h0.9v1.6h1.2v0.8h-1.2v3.6c0,0.4,0.2,0.7,0.6,0.7
					c0.3,0,0.5-0.1,0.6-0.3l0.3,0.7c-0.2,0.2-0.6,0.4-1.1,0.4C225.7,200,225.3,199.5,225.3,198.7z"/>
				<path fill="#333333" d="M229,197c0-1.7,1.1-3,2.9-3s2.9,1.4,2.9,3s-1.1,3-2.9,3S229,198.7,229,197z M233.7,197
					c0-1.2-0.7-2.2-1.9-2.2s-1.9,1.1-1.9,2.2c0,1.2,0.7,2.2,1.9,2.2S233.7,198.2,233.7,197z"/>
				<path fill="#333333" d="M240.6,199.9v-5.8h0.9v0.9c0.5-0.6,1.1-1.1,1.9-1.1v0.9c-0.1,0-0.2,0-0.3,0c-0.6,0-1.3,0.5-1.6,0.9v4.1
					H240.6z"/>
				<path fill="#333333" d="M244.8,197c0-1.7,1.2-3,2.9-3c1.8,0,2.8,1.4,2.8,3.1v0.2h-4.7c0.1,1.1,0.8,2,2.1,2
					c0.7,0,1.3-0.3,1.8-0.7l0.4,0.6c-0.6,0.6-1.4,0.9-2.3,0.9C246.1,200,244.8,198.8,244.8,197z M247.7,194.7c-1.2,0-1.8,1-1.9,1.9
					h3.8C249.6,195.7,249,194.7,247.7,194.7z"/>
				<path fill="#333333" d="M252.8,198.7v-3.8h-1v-0.8h1v-1.6h0.9v1.6h1.2v0.8h-1.2v3.6c0,0.4,0.2,0.7,0.6,0.7
					c0.3,0,0.5-0.1,0.6-0.3l0.3,0.7c-0.2,0.2-0.6,0.4-1.1,0.4C253.2,200,252.8,199.5,252.8,198.7z"/>
				<path fill="#333333" d="M256.7,199.9v-5.8h0.9v0.9c0.5-0.6,1.1-1.1,1.9-1.1v0.9c-0.1,0-0.2,0-0.3,0c-0.6,0-1.3,0.5-1.6,0.9v4.1
					H256.7z"/>
				<path fill="#333333" d="M261.2,192.7c0-0.3,0.3-0.6,0.6-0.6c0.3,0,0.6,0.3,0.6,0.6c0,0.3-0.3,0.6-0.6,0.6
					C261.5,193.3,261.2,193,261.2,192.7z M261.4,199.9v-5.8h0.9v5.8H261.4z"/>
				<path fill="#333333" d="M264.4,197c0-1.7,1.2-3,2.9-3c1.8,0,2.8,1.4,2.8,3.1v0.2h-4.7c0.1,1.1,0.8,2,2.1,2
					c0.7,0,1.3-0.3,1.8-0.7l0.4,0.6c-0.6,0.6-1.4,0.9-2.3,0.9C265.6,200,264.4,198.8,264.4,197z M267.2,194.7c-1.2,0-1.8,1-1.9,1.9
					h3.8C269.1,195.7,268.5,194.7,267.2,194.7z"/>
				<path fill="#333333" d="M273.7,199.9l-2.4-5.8h1l1.9,4.7l1.9-4.7h1l-2.4,5.8H273.7z"/>
				<path fill="#333333" d="M278.3,197c0-1.7,1.2-3,2.9-3c1.8,0,2.8,1.4,2.8,3.1v0.2h-4.7c0.1,1.1,0.8,2,2.1,2
					c0.7,0,1.3-0.3,1.8-0.7l0.4,0.6c-0.6,0.6-1.4,0.9-2.3,0.9C279.5,200,278.3,198.8,278.3,197z M281.1,194.7c-1.2,0-1.8,1-1.9,1.9
					h3.8C283,195.7,282.5,194.7,281.1,194.7z"/>
				<path fill="#333333" d="M293.4,199.9v-0.7c-0.5,0.5-1.1,0.8-1.9,0.8c-1,0-2-0.7-2-1.9c0-1.3,1-1.9,2-1.9c0.8,0,1.5,0.3,1.9,0.8
					v-1c0-0.8-0.6-1.2-1.5-1.2c-0.7,0-1.3,0.2-1.8,0.8l-0.4-0.6c0.6-0.6,1.4-1,2.3-1c1.2,0,2.2,0.6,2.2,2v4H293.4z M293.4,198.7
					v-1.1c-0.3-0.5-1-0.7-1.6-0.7c-0.9,0-1.4,0.5-1.4,1.3c0,0.7,0.6,1.3,1.4,1.3C292.5,199.4,293.1,199.1,293.4,198.7z"/>
				<path fill="#333333" d="M158,213.5l0.5-0.6c0.4,0.4,1.1,0.8,1.9,0.8c0.9,0,1.4-0.4,1.4-1c0-1.4-3.6-0.5-3.6-2.7
					c0-0.9,0.8-1.7,2.1-1.7c1,0,1.7,0.4,2.1,0.8l-0.4,0.6c-0.3-0.4-1-0.7-1.7-0.7c-0.8,0-1.3,0.4-1.3,0.9c0,1.3,3.6,0.4,3.6,2.7
					c0,1-0.8,1.8-2.3,1.8C159.4,214.4,158.6,214.1,158,213.5z"/>
				<path fill="#333333" d="M168.7,214.3v-3.8c0-1-0.5-1.3-1.3-1.3c-0.7,0-1.4,0.4-1.7,0.9v4.2h-0.9v-5.8h0.9v0.8
					c0.4-0.5,1.2-1,2.1-1c1.2,0,1.8,0.6,1.8,1.9v4.1H168.7z"/>
				<path fill="#333333" d="M175.6,214.3v-0.7c-0.5,0.5-1.1,0.8-1.9,0.8c-1,0-2-0.7-2-1.9c0-1.3,1-1.9,2-1.9c0.8,0,1.5,0.3,1.9,0.8
					v-1c0-0.8-0.6-1.2-1.5-1.2c-0.7,0-1.3,0.2-1.8,0.8l-0.4-0.6c0.6-0.6,1.4-1,2.3-1c1.2,0,2.2,0.6,2.2,2v4H175.6z M175.6,213.1
					v-1.1c-0.3-0.5-1-0.7-1.6-0.7c-0.9,0-1.4,0.5-1.4,1.3c0,0.7,0.6,1.3,1.4,1.3C174.7,213.8,175.3,213.5,175.6,213.1z"/>
				<path fill="#333333" d="M179.9,213.4v3.1H179v-8h0.9v0.9c0.4-0.6,1.1-1,2-1c1.5,0,2.6,1.2,2.6,3c0,1.9-1.1,3-2.6,3
					C181.1,214.4,180.4,214,179.9,213.4z M183.5,211.4c0-1.3-0.7-2.2-1.9-2.2c-0.7,0-1.4,0.4-1.7,0.9v2.6c0.3,0.5,1,0.9,1.7,0.9
					C182.8,213.6,183.5,212.7,183.5,211.4z"/>
				<path fill="#333333" d="M190.4,214.3v-3.8c0-1-0.5-1.3-1.3-1.3c-0.7,0-1.4,0.4-1.7,0.9v4.2h-0.9v-8h0.9v3c0.4-0.5,1.2-1,2.1-1
					c1.2,0,1.8,0.6,1.8,1.8v4.1H190.4z"/>
				<path fill="#333333" d="M193.4,211.4c0-1.7,1.1-3,2.9-3s2.9,1.4,2.9,3s-1.1,3-2.9,3S193.4,213.1,193.4,211.4z M198.2,211.4
					c0-1.2-0.7-2.2-1.9-2.2s-1.9,1.1-1.9,2.2c0,1.2,0.7,2.2,1.9,2.2S198.2,212.6,198.2,211.4z"/>
				<path fill="#333333" d="M201.5,213.1v-3.8h-1v-0.8h1v-1.6h0.9v1.6h1.2v0.8h-1.2v3.6c0,0.4,0.2,0.7,0.6,0.7
					c0.3,0,0.5-0.1,0.6-0.3l0.3,0.7c-0.2,0.2-0.6,0.4-1.1,0.4C201.9,214.4,201.5,213.9,201.5,213.1z"/>
				<path fill="#333333" d="M209.5,214.3v-5h-1v-0.8h1V208c0-1.2,0.7-1.9,1.7-1.9c0.5,0,0.9,0.1,1.2,0.4l-0.4,0.6
					c-0.2-0.2-0.4-0.3-0.7-0.3c-0.6,0-0.9,0.4-0.9,1.1v0.4h1.2v0.8h-1.2v5H209.5z"/>
				<path fill="#333333" d="M213.3,214.3v-5.8h0.9v0.9c0.5-0.6,1.1-1.1,1.9-1.1v0.9c-0.1,0-0.2,0-0.3,0c-0.6,0-1.3,0.5-1.6,0.9v4.1
					H213.3z"/>
				<path fill="#333333" d="M217.5,211.4c0-1.7,1.1-3,2.9-3s2.9,1.4,2.9,3s-1.1,3-2.9,3S217.5,213.1,217.5,211.4z M222.3,211.4
					c0-1.2-0.7-2.2-1.9-2.2s-1.9,1.1-1.9,2.2c0,1.2,0.7,2.2,1.9,2.2S222.3,212.6,222.3,211.4z"/>
				<path fill="#333333" d="M232.4,214.3v-3.9c0-0.7-0.3-1.2-1.1-1.2c-0.6,0-1.2,0.4-1.5,0.9v4.2h-0.9v-3.9c0-0.7-0.3-1.2-1.1-1.2
					c-0.6,0-1.2,0.4-1.5,0.9v4.2h-0.9v-5.8h0.9v0.8c0.3-0.4,1-1,1.9-1c0.9,0,1.4,0.5,1.5,1.1c0.3-0.5,1.1-1.1,1.9-1.1
					c1.1,0,1.6,0.6,1.6,1.8v4.2H232.4z"/>
				<path fill="#333333" d="M239.7,213.1v-3.8h-1v-0.8h1v-1.6h0.9v1.6h1.2v0.8h-1.2v3.6c0,0.4,0.2,0.7,0.6,0.7
					c0.3,0,0.5-0.1,0.6-0.3l0.3,0.7c-0.2,0.2-0.6,0.4-1.1,0.4C240.1,214.4,239.7,213.9,239.7,213.1z"/>
				<path fill="#333333" d="M247.6,214.3v-3.8c0-1-0.5-1.3-1.3-1.3c-0.7,0-1.4,0.4-1.7,0.9v4.2h-0.9v-8h0.9v3c0.4-0.5,1.2-1,2.1-1
					c1.2,0,1.8,0.6,1.8,1.8v4.1H247.6z"/>
				<path fill="#333333" d="M250.6,211.4c0-1.7,1.2-3,2.9-3c1.8,0,2.8,1.4,2.8,3.1v0.2h-4.7c0.1,1.1,0.8,2,2.1,2
					c0.7,0,1.3-0.3,1.8-0.7l0.4,0.6c-0.6,0.6-1.4,0.9-2.3,0.9C251.8,214.4,250.6,213.2,250.6,211.4z M253.4,209.1
					c-1.2,0-1.8,1-1.9,1.9h3.8C255.3,210.1,254.8,209.1,253.4,209.1z"/>
				<path fill="#333333" d="M261.8,211.4c0-1.7,1.2-3,2.9-3c1.1,0,1.7,0.4,2.1,1l-0.6,0.5c-0.4-0.5-0.9-0.7-1.5-0.7
					c-1.2,0-2,0.9-2,2.2s0.8,2.2,2,2.2c0.6,0,1.1-0.2,1.5-0.8l0.6,0.6c-0.4,0.6-1.1,1-2.1,1C262.9,214.4,261.8,213.1,261.8,211.4z"
					/>
				<path fill="#333333" d="M272.3,214.3v-0.7c-0.5,0.5-1.1,0.8-1.9,0.8c-1,0-2-0.7-2-1.9c0-1.3,1-1.9,2-1.9c0.8,0,1.5,0.3,1.9,0.8
					v-1c0-0.8-0.6-1.2-1.5-1.2c-0.7,0-1.3,0.2-1.8,0.8l-0.4-0.6c0.6-0.6,1.4-1,2.3-1c1.2,0,2.2,0.6,2.2,2v4H272.3z M272.3,213.1
					v-1.1c-0.3-0.5-1-0.7-1.6-0.7c-0.9,0-1.4,0.5-1.4,1.3c0,0.7,0.6,1.3,1.4,1.3C271.4,213.8,272,213.5,272.3,213.1z"/>
				<path fill="#333333" d="M282.7,214.3v-3.9c0-0.7-0.3-1.2-1.1-1.2c-0.6,0-1.2,0.4-1.5,0.9v4.2h-0.9v-3.9c0-0.7-0.3-1.2-1.1-1.2
					c-0.6,0-1.2,0.4-1.5,0.9v4.2h-0.9v-5.8h0.9v0.8c0.3-0.4,1-1,1.9-1c0.9,0,1.4,0.5,1.5,1.1c0.3-0.5,1.1-1.1,1.9-1.1
					c1.1,0,1.6,0.6,1.6,1.8v4.2H282.7z"/>
				<path fill="#333333" d="M285.7,211.4c0-1.7,1.2-3,2.9-3c1.8,0,2.8,1.4,2.8,3.1v0.2h-4.7c0.1,1.1,0.8,2,2.1,2
					c0.7,0,1.3-0.3,1.8-0.7l0.4,0.6c-0.6,0.6-1.4,0.9-2.3,0.9C286.9,214.4,285.7,213.2,285.7,211.4z M288.5,209.1
					c-1.2,0-1.8,1-1.9,1.9h3.8C290.4,210.1,289.9,209.1,288.5,209.1z"/>
				<path fill="#333333" d="M293.4,214.3v-5.8h0.9v0.9c0.5-0.6,1.1-1.1,1.9-1.1v0.9c-0.1,0-0.2,0-0.3,0c-0.6,0-1.3,0.5-1.6,0.9v4.1
					H293.4z"/>
				<path fill="#333333" d="M301.7,214.3v-0.7c-0.5,0.5-1.1,0.8-1.9,0.8c-1,0-2-0.7-2-1.9c0-1.3,1-1.9,2-1.9c0.8,0,1.5,0.3,1.9,0.8
					v-1c0-0.8-0.6-1.2-1.5-1.2c-0.7,0-1.3,0.2-1.8,0.8l-0.4-0.6c0.6-0.6,1.4-1,2.3-1c1.2,0,2.2,0.6,2.2,2v4H301.7z M301.7,213.1
					v-1.1c-0.3-0.5-1-0.7-1.6-0.7c-0.9,0-1.4,0.5-1.4,1.3c0,0.7,0.6,1.3,1.4,1.3C300.7,213.8,301.3,213.5,301.7,213.1z"/>
			</g>
		</g>
		<g>
			<g>
				<rect x="207.4" y="125.2" fill="none" stroke="#333333" stroke-width="2" stroke-miterlimit="10" width="45" height="34.6"/>
			</g>
			<polyline fill="none" stroke="#414042" stroke-width="2" stroke-miterlimit="10" points="215.2,123.5 215.2,118.3 261,118.3 
				261,152.9 254.1,152.9 			"/>
			<polyline fill="none" stroke="#333333" stroke-width="2" stroke-miterlimit="10" points="207.4,151.2 219.5,139 231.6,152.9 
				240.3,147.7 252.4,158.1 			"/>
			<circle fill="none" stroke="#333333" stroke-width="2" stroke-miterlimit="10" cx="241.1" cy="136.5" r="4.3"/>
			<g>
				<circle fill="#DC4C3F" cx="208.8" cy="158.7" r="8"/>
				<g>
					<path fill="#FFFFFF" d="M208.8,168.6c-5.4,0-9.8-4.4-9.8-9.8s4.4-9.8,9.8-9.8c5.4,0,9.8,4.4,9.8,9.8
						C218.6,164.2,214.2,168.6,208.8,168.6L208.8,168.6z M201.5,158.8c0,4,3.3,7.3,7.3,7.3c1.6,0,3-0.5,4.2-1.4l-10.2-10.2
						C202,155.8,201.5,157.2,201.5,158.8L201.5,158.8z M208.8,151.5c-1.6,0-3,0.5-4.2,1.4l10.2,10.2c0.9-1.2,1.4-2.7,1.4-4.2
						C216.2,154.8,212.9,151.5,208.8,151.5L208.8,151.5z"/>
				</g>
			</g>
		</g>
	</g>
</g>
<g id="Creative_Commons_License" display="none">
	
		<text id="Creative_Commons_License_1_" transform="matrix(1 0 0 1 2 470.0439)" display="inline" font-family="'MyriadPro-Regular'" font-size="12">With assets by Budi Tanrim / CC BY</text>
</g>
</svg>
