<?xml version="1.0" encoding="utf-8"?>
<!-- Generator: Adobe Illustrator 17.1.0, SVG Export Plug-In . SVG Version: 6.00 Build 0)  -->
<!DOCTYPE svg PUBLIC "-//W3C//DTD SVG 1.1//EN" "http://www.w3.org/Graphics/SVG/1.1/DTD/svg11.dtd">
<svg version="1.1" xmlns="http://www.w3.org/2000/svg" xmlns:xlink="http://www.w3.org/1999/xlink" x="0px" y="0px"
	 viewBox="0 0 640 480" enable-background="new 0 0 640 480" xml:space="preserve">
<g id="Layer_1">
	<g>
		<rect x="289" y="184.1" fill="none" stroke="#414042" stroke-width="2" stroke-miterlimit="10" width="52" height="40"/>
	</g>
	<polyline fill="none" stroke="#414042" stroke-width="2" stroke-miterlimit="10" points="298,182.1 298,176.1 351,176.1 351,216.1 
		343,216.1 	"/>
	<polyline fill="none" stroke="#414042" stroke-width="2" stroke-miterlimit="10" points="289,214.1 303,200.1 317,216.1 327,210.1 
		341,222.1 	"/>
	<circle fill="none" stroke="#414042" stroke-width="2" stroke-miterlimit="10" cx="328" cy="197.1" r="5"/>
	<g>
		<path d="M198.9,258v-8.3h-3v-1h7.1v1h-3v8.3H198.9z"/>
		<path d="M210.5,258v-4.5c0-1.2-0.6-1.5-1.5-1.5c-0.8,0-1.6,0.5-2,1v4.9h-1.1v-9.3h1.1v3.6c0.5-0.6,1.4-1.1,2.4-1.1
			c1.4,0,2.2,0.7,2.2,2.2v4.8H210.5z"/>
		<path d="M214.7,254.6c0-2,1.4-3.5,3.3-3.5c2,0,3.2,1.6,3.2,3.6v0.3h-5.5c0.1,1.3,1,2.3,2.4,2.3c0.8,0,1.6-0.3,2.1-0.9l0.5,0.7
			c-0.7,0.7-1.6,1.1-2.7,1.1C216.1,258.2,214.7,256.7,214.7,254.6z M218,252c-1.4,0-2.2,1.2-2.2,2.2h4.4
			C220.2,253.2,219.5,252,218,252z"/>
		<path d="M224.3,258v-6.8h1.1v1.1c0.5-0.7,1.3-1.2,2.3-1.2v1.1c-0.1,0-0.3,0-0.4,0c-0.7,0-1.5,0.5-1.8,1.1v4.8H224.3z"/>
		<path d="M230,254.6c0-2,1.4-3.5,3.3-3.5c2,0,3.2,1.6,3.2,3.6v0.3h-5.5c0.1,1.3,1,2.3,2.4,2.3c0.8,0,1.6-0.3,2.1-0.9l0.5,0.7
			c-0.7,0.7-1.6,1.1-2.7,1.1C231.4,258.2,230,256.7,230,254.6z M233.3,252c-1.4,0-2.2,1.2-2.2,2.2h4.4
			C235.5,253.2,234.8,252,233.3,252z"/>
		<path d="M248.9,258v-0.8c-0.5,0.6-1.3,0.9-2.2,0.9c-1.1,0-2.4-0.8-2.4-2.2c0-1.5,1.2-2.2,2.4-2.2c0.9,0,1.7,0.3,2.2,0.9v-1.2
			c0-0.9-0.7-1.4-1.7-1.4c-0.8,0-1.5,0.3-2.1,0.9l-0.5-0.7c0.7-0.8,1.6-1.1,2.7-1.1c1.4,0,2.6,0.6,2.6,2.3v4.7H248.9z M248.9,256.6
			v-1.3c-0.4-0.5-1.1-0.8-1.8-0.8c-1,0-1.7,0.6-1.7,1.5c0,0.9,0.7,1.5,1.7,1.5C247.8,257.4,248.5,257.1,248.9,256.6z"/>
		<path d="M253.5,258v-6.8h1.1v1.1c0.5-0.7,1.3-1.2,2.3-1.2v1.1c-0.1,0-0.3,0-0.4,0c-0.7,0-1.5,0.5-1.8,1.1v4.8H253.5z"/>
		<path d="M259.1,254.6c0-2,1.4-3.5,3.3-3.5c2,0,3.2,1.6,3.2,3.6v0.3h-5.5c0.1,1.3,1,2.3,2.4,2.3c0.8,0,1.6-0.3,2.1-0.9l0.5,0.7
			c-0.7,0.7-1.6,1.1-2.7,1.1C260.5,258.2,259.1,256.7,259.1,254.6z M262.4,252c-1.4,0-2.2,1.2-2.2,2.2h4.4
			C264.6,253.2,263.9,252,262.4,252z"/>
		<path d="M278.4,258v-4.4c0-1.2-0.6-1.6-1.5-1.6c-0.8,0-1.6,0.5-2,1v4.9h-1.1v-6.8h1.1v1c0.5-0.6,1.4-1.1,2.4-1.1
			c1.4,0,2.1,0.7,2.1,2.2v4.7H278.4z"/>
		<path d="M282.5,254.6c0-2,1.3-3.5,3.3-3.5c2.1,0,3.3,1.6,3.3,3.5c0,2-1.3,3.6-3.3,3.6C283.8,258.2,282.5,256.6,282.5,254.6z
			 M288.1,254.6c0-1.4-0.8-2.6-2.2-2.6c-1.4,0-2.2,1.2-2.2,2.6c0,1.4,0.8,2.6,2.2,2.6C287.3,257.2,288.1,256,288.1,254.6z"/>
		<path d="M296.8,257.1l0.5-0.8c0.4,0.5,1.3,1,2.2,1c1,0,1.6-0.5,1.6-1.2c0-1.6-4.2-0.6-4.2-3.1c0-1.1,0.9-1.9,2.5-1.9
			c1.2,0,2,0.4,2.5,1l-0.5,0.7c-0.4-0.5-1.1-0.9-2-0.9c-0.9,0-1.5,0.5-1.5,1.1c0,1.5,4.2,0.5,4.2,3.1c0,1.1-0.9,2-2.6,2
			C298.4,258.2,297.5,257.8,296.8,257.1z"/>
		<path d="M309.8,258v-4.4c0-1.2-0.6-1.6-1.5-1.6c-0.8,0-1.6,0.5-2,1v4.9h-1.1v-6.8h1.1v1c0.5-0.6,1.4-1.1,2.4-1.1
			c1.4,0,2.1,0.7,2.1,2.2v4.7H309.8z"/>
		<path d="M318.6,258v-0.8c-0.5,0.6-1.3,0.9-2.2,0.9c-1.1,0-2.4-0.8-2.4-2.2c0-1.5,1.2-2.2,2.4-2.2c0.9,0,1.7,0.3,2.2,0.9v-1.2
			c0-0.9-0.7-1.4-1.7-1.4c-0.8,0-1.5,0.3-2.1,0.9l-0.5-0.7c0.7-0.8,1.6-1.1,2.7-1.1c1.4,0,2.6,0.6,2.6,2.3v4.7H318.6z M318.6,256.6
			v-1.3c-0.4-0.5-1.1-0.8-1.8-0.8c-1,0-1.7,0.6-1.7,1.5c0,0.9,0.7,1.5,1.7,1.5C317.5,257.4,318.2,257.1,318.6,256.6z"/>
		<path d="M324.2,257v3.6h-1.1v-9.3h1.1v1c0.5-0.7,1.3-1.2,2.3-1.2c1.8,0,3,1.3,3,3.5c0,2.2-1.2,3.6-3,3.6
			C325.6,258.2,324.8,257.7,324.2,257z M328.4,254.6c0-1.5-0.8-2.6-2.2-2.6c-0.8,0-1.7,0.5-2,1.1v3.1c0.4,0.6,1.2,1.1,2,1.1
			C327.6,257.2,328.4,256.1,328.4,254.6z"/>
		<path d="M332,257.1l0.5-0.8c0.4,0.5,1.3,1,2.2,1c1,0,1.6-0.5,1.6-1.2c0-1.6-4.2-0.6-4.2-3.1c0-1.1,0.9-1.9,2.5-1.9
			c1.2,0,2,0.4,2.5,1l-0.5,0.7c-0.4-0.5-1.1-0.9-2-0.9c-0.9,0-1.5,0.5-1.5,1.1c0,1.5,4.2,0.5,4.2,3.1c0,1.1-0.9,2-2.6,2
			C333.6,258.2,332.7,257.8,332,257.1z"/>
		<path d="M345.1,258v-4.5c0-1.2-0.6-1.5-1.5-1.5c-0.8,0-1.6,0.5-2,1v4.9h-1.1v-9.3h1.1v3.6c0.5-0.6,1.4-1.1,2.4-1.1
			c1.4,0,2.2,0.7,2.2,2.2v4.8H345.1z"/>
		<path d="M349.2,254.6c0-2,1.3-3.5,3.3-3.5c2.1,0,3.3,1.6,3.3,3.5c0,2-1.3,3.6-3.3,3.6C350.5,258.2,349.2,256.6,349.2,254.6z
			 M354.8,254.6c0-1.4-0.8-2.6-2.2-2.6c-1.4,0-2.2,1.2-2.2,2.6c0,1.4,0.8,2.6,2.2,2.6C354,257.2,354.8,256,354.8,254.6z"/>
		<path d="M359.2,256.6v-4.4h-1.1v-0.9h1.1v-1.8h1.1v1.8h1.4v0.9h-1.4v4.2c0,0.5,0.2,0.9,0.7,0.9c0.3,0,0.6-0.1,0.7-0.3l0.3,0.8
			c-0.3,0.3-0.6,0.4-1.2,0.4C359.7,258.2,359.2,257.6,359.2,256.6z"/>
		<path d="M364,257.1l0.5-0.8c0.4,0.5,1.3,1,2.2,1c1,0,1.6-0.5,1.6-1.2c0-1.6-4.2-0.6-4.2-3.1c0-1.1,0.9-1.9,2.5-1.9
			c1.2,0,2,0.4,2.5,1l-0.5,0.7c-0.4-0.5-1.1-0.9-2-0.9c-0.9,0-1.5,0.5-1.5,1.1c0,1.5,4.2,0.5,4.2,3.1c0,1.1-0.9,2-2.6,2
			C365.6,258.2,364.7,257.8,364,257.1z"/>
		<path d="M381.7,258v-0.8c-0.5,0.6-1.3,0.9-2.2,0.9c-1.1,0-2.4-0.8-2.4-2.2c0-1.5,1.2-2.2,2.4-2.2c0.9,0,1.7,0.3,2.2,0.9v-1.2
			c0-0.9-0.7-1.4-1.7-1.4c-0.8,0-1.5,0.3-2.1,0.9l-0.5-0.7c0.7-0.8,1.6-1.1,2.7-1.1c1.4,0,2.6,0.6,2.6,2.3v4.7H381.7z M381.7,256.6
			v-1.3c-0.4-0.5-1.1-0.8-1.8-0.8c-1,0-1.7,0.6-1.7,1.5c0,0.9,0.7,1.5,1.7,1.5C380.6,257.4,381.3,257.1,381.7,256.6z"/>
		<path d="M388.1,258l-2.8-6.8h1.1l2.2,5.5l2.3-5.5h1.1l-2.8,6.8H388.1z"/>
		<path d="M398.8,258v-0.8c-0.5,0.6-1.3,0.9-2.2,0.9c-1.1,0-2.4-0.8-2.4-2.2c0-1.5,1.2-2.2,2.4-2.2c0.9,0,1.7,0.3,2.2,0.9v-1.2
			c0-0.9-0.7-1.4-1.7-1.4c-0.8,0-1.5,0.3-2.1,0.9l-0.5-0.7c0.7-0.8,1.6-1.1,2.7-1.1c1.4,0,2.6,0.6,2.6,2.3v4.7H398.8z M398.8,256.6
			v-1.3c-0.4-0.5-1.1-0.8-1.8-0.8c-1,0-1.7,0.6-1.7,1.5c0,0.9,0.7,1.5,1.7,1.5C397.6,257.4,398.4,257.1,398.8,256.6z"/>
		<path d="M403.1,249.6c0-0.4,0.3-0.7,0.7-0.7c0.4,0,0.7,0.3,0.7,0.7c0,0.4-0.3,0.7-0.7,0.7C403.5,250.3,403.1,250,403.1,249.6z
			 M403.3,258v-6.8h1.1v6.8H403.3z"/>
		<path d="M407.9,258v-9.3h1.1v9.3H407.9z"/>
		<path d="M416.7,258v-0.8c-0.5,0.6-1.3,0.9-2.2,0.9c-1.1,0-2.4-0.8-2.4-2.2c0-1.5,1.2-2.2,2.4-2.2c0.9,0,1.7,0.3,2.2,0.9v-1.2
			c0-0.9-0.7-1.4-1.7-1.4c-0.8,0-1.5,0.3-2.1,0.9l-0.5-0.7c0.7-0.8,1.6-1.1,2.7-1.1c1.4,0,2.6,0.6,2.6,2.3v4.7H416.7z M416.7,256.6
			v-1.3c-0.4-0.5-1.1-0.8-1.8-0.8c-1,0-1.7,0.6-1.7,1.5c0,0.9,0.7,1.5,1.7,1.5C415.5,257.4,416.2,257.1,416.7,256.6z"/>
		<path d="M421.2,258v-9.3h1.1v3.6c0.5-0.7,1.4-1.2,2.3-1.2c1.8,0,3,1.4,3,3.6c0,2.2-1.2,3.5-3,3.5c-1,0-1.8-0.5-2.3-1.2v1H421.2z
			 M424.3,257.2c1.4,0,2.2-1.1,2.2-2.6s-0.8-2.6-2.2-2.6c-0.8,0-1.7,0.5-2,1.1v3.1C422.6,256.8,423.5,257.2,424.3,257.2z"/>
		<path d="M430.7,258v-9.3h1.1v9.3H430.7z"/>
		<path d="M434.8,254.6c0-2,1.4-3.5,3.3-3.5c2,0,3.2,1.6,3.2,3.6v0.3h-5.5c0.1,1.3,1,2.3,2.4,2.3c0.8,0,1.6-0.3,2.1-0.9l0.5,0.7
			c-0.7,0.7-1.6,1.1-2.7,1.1C436.3,258.2,434.8,256.7,434.8,254.6z M438.1,252c-1.4,0-2.2,1.2-2.2,2.2h4.4
			C440.4,253.2,439.7,252,438.1,252z"/>
		<path d="M214.2,274.8V269h-1.1v-0.9h1.1v-0.5c0-1.4,0.8-2.2,2-2.2c0.5,0,1,0.1,1.4,0.5l-0.4,0.7c-0.2-0.2-0.5-0.3-0.8-0.3
			c-0.7,0-1.1,0.5-1.1,1.3v0.5h1.4v0.9h-1.4v5.8H214.2z"/>
		<path d="M218.9,271.4c0-2,1.3-3.5,3.3-3.5s3.3,1.6,3.3,3.5c0,2-1.3,3.6-3.3,3.6S218.9,273.4,218.9,271.4z M224.5,271.4
			c0-1.4-0.8-2.6-2.2-2.6c-1.4,0-2.2,1.2-2.2,2.6c0,1.4,0.8,2.6,2.2,2.6C223.7,274,224.5,272.8,224.5,271.4z"/>
		<path d="M228.7,274.8v-6.8h1.1v1.1c0.5-0.7,1.3-1.2,2.3-1.2v1.1c-0.1,0-0.3,0-0.4,0c-0.7,0-1.5,0.5-1.8,1.1v4.8H228.7z"/>
		<path d="M239.9,273.4V269h-1.1v-0.9h1.1v-1.8h1.1v1.8h1.4v0.9H241v4.2c0,0.5,0.2,0.9,0.7,0.9c0.3,0,0.6-0.1,0.7-0.3l0.3,0.8
			c-0.3,0.3-0.6,0.4-1.2,0.4C240.4,275,239.9,274.4,239.9,273.4z"/>
		<path d="M249.8,274.8v-4.5c0-1.2-0.6-1.5-1.5-1.5c-0.8,0-1.6,0.5-2,1v4.9h-1.1v-9.3h1.1v3.6c0.5-0.6,1.4-1.1,2.4-1.1
			c1.4,0,2.2,0.7,2.2,2.2v4.8H249.8z"/>
		<path d="M254,271.4c0-2,1.4-3.5,3.3-3.5c2,0,3.2,1.6,3.2,3.6v0.3h-5.5c0.1,1.3,1,2.3,2.4,2.3c0.8,0,1.6-0.3,2.1-0.9l0.5,0.7
			c-0.7,0.7-1.6,1.1-2.7,1.1C255.4,275,254,273.5,254,271.4z M257.3,268.8c-1.4,0-2.2,1.2-2.2,2.2h4.4
			C259.5,270,258.8,268.8,257.3,268.8z"/>
		<path d="M268.1,273.9l0.5-0.8c0.4,0.5,1.3,1,2.2,1c1,0,1.6-0.5,1.6-1.2c0-1.6-4.2-0.6-4.2-3.1c0-1.1,0.9-1.9,2.5-1.9
			c1.2,0,2,0.4,2.5,1l-0.5,0.7c-0.4-0.5-1.1-0.9-2-0.9c-0.9,0-1.5,0.5-1.5,1.1c0,1.5,4.2,0.5,4.2,3.1c0,1.1-0.9,2-2.6,2
			C269.7,275,268.8,274.6,268.1,273.9z"/>
		<path d="M276.2,271.4c0-2,1.4-3.5,3.3-3.5c2,0,3.2,1.6,3.2,3.6v0.3h-5.5c0.1,1.3,1,2.3,2.4,2.3c0.8,0,1.6-0.3,2.1-0.9l0.5,0.7
			c-0.7,0.7-1.6,1.1-2.7,1.1C277.6,275,276.2,273.5,276.2,271.4z M279.5,268.8c-1.4,0-2.2,1.2-2.2,2.2h4.4
			C281.7,270,281.1,268.8,279.5,268.8z"/>
		<path d="M285.9,274.8v-9.3h1.1v9.3H285.9z"/>
		<path d="M290,271.4c0-2,1.4-3.5,3.3-3.5c2,0,3.2,1.6,3.2,3.6v0.3h-5.5c0.1,1.3,1,2.3,2.4,2.3c0.8,0,1.6-0.3,2.1-0.9l0.5,0.7
			c-0.7,0.7-1.6,1.1-2.7,1.1C291.5,275,290,273.5,290,271.4z M293.3,268.8c-1.4,0-2.2,1.2-2.2,2.2h4.4
			C295.6,270,294.9,268.8,293.3,268.8z"/>
		<path d="M299.3,271.4c0-2,1.4-3.5,3.4-3.5c1.2,0,2,0.5,2.5,1.2l-0.7,0.6c-0.4-0.6-1-0.9-1.7-0.9c-1.4,0-2.3,1.1-2.3,2.6
			c0,1.5,0.9,2.6,2.3,2.6c0.7,0,1.3-0.3,1.7-0.9l0.7,0.6c-0.5,0.7-1.2,1.2-2.5,1.2C300.7,275,299.3,273.4,299.3,271.4z"/>
		<path d="M308.3,273.4V269h-1.1v-0.9h1.1v-1.8h1.1v1.8h1.4v0.9h-1.4v4.2c0,0.5,0.2,0.9,0.7,0.9c0.3,0,0.6-0.1,0.7-0.3l0.3,0.8
			c-0.3,0.3-0.6,0.4-1.2,0.4C308.8,275,308.3,274.4,308.3,273.4z"/>
		<path d="M313.2,271.4c0-2,1.4-3.5,3.3-3.5c2,0,3.2,1.6,3.2,3.6v0.3h-5.5c0.1,1.3,1,2.3,2.4,2.3c0.8,0,1.6-0.3,2.1-0.9l0.5,0.7
			c-0.7,0.7-1.6,1.1-2.7,1.1C314.6,275,313.2,273.5,313.2,271.4z M316.5,268.8c-1.4,0-2.2,1.2-2.2,2.2h4.4
			C318.7,270,318,268.8,316.5,268.8z"/>
		<path d="M327.7,274.8v-1c-0.5,0.7-1.3,1.2-2.3,1.2c-1.8,0-3-1.3-3-3.5c0-2.2,1.2-3.6,3-3.6c0.9,0,1.7,0.4,2.3,1.2v-3.6h1.1v9.3
			H327.7z M327.7,273v-3.1c-0.4-0.6-1.2-1.1-2-1.1c-1.4,0-2.2,1.1-2.2,2.6s0.8,2.6,2.2,2.6C326.6,274,327.4,273.6,327.7,273z"/>
		<path d="M337.5,273.4V269h-1.1v-0.9h1.1v-1.8h1.1v1.8h1.4v0.9h-1.4v4.2c0,0.5,0.2,0.9,0.7,0.9c0.3,0,0.6-0.1,0.7-0.3l0.3,0.8
			c-0.3,0.3-0.6,0.4-1.2,0.4C338,275,337.5,274.4,337.5,273.4z"/>
		<path d="M342.7,266.4c0-0.4,0.3-0.7,0.7-0.7c0.4,0,0.7,0.3,0.7,0.7c0,0.4-0.3,0.7-0.7,0.7C343,267.1,342.7,266.8,342.7,266.4z
			 M342.8,274.8v-6.8h1.1v6.8H342.8z"/>
		<path d="M355.5,274.8v-4.6c0-0.9-0.4-1.4-1.2-1.4c-0.7,0-1.4,0.5-1.8,1v5h-1.1v-4.6c0-0.9-0.4-1.4-1.2-1.4c-0.7,0-1.4,0.5-1.8,1
			v4.9h-1.1v-6.8h1.1v1c0.3-0.4,1.2-1.1,2.2-1.1c1,0,1.6,0.6,1.8,1.3c0.4-0.6,1.3-1.3,2.3-1.3c1.2,0,1.9,0.7,1.9,2v4.9H355.5z"/>
		<path d="M359.7,271.4c0-2,1.4-3.5,3.3-3.5c2,0,3.2,1.6,3.2,3.6v0.3h-5.5c0.1,1.3,1,2.3,2.4,2.3c0.8,0,1.6-0.3,2.1-0.9l0.5,0.7
			c-0.7,0.7-1.6,1.1-2.7,1.1C361.1,275,359.7,273.5,359.7,271.4z M363,268.8c-1.4,0-2.2,1.2-2.2,2.2h4.4
			C365.2,270,364.6,268.8,363,268.8z"/>
		<path d="M375.5,273.8v3.6h-1.1v-9.3h1.1v1c0.5-0.7,1.3-1.2,2.3-1.2c1.8,0,3,1.3,3,3.5c0,2.2-1.2,3.6-3,3.6
			C376.8,275,376,274.5,375.5,273.8z M379.6,271.4c0-1.5-0.8-2.6-2.2-2.6c-0.8,0-1.7,0.5-2,1.1v3.1c0.4,0.6,1.2,1.1,2,1.1
			C378.8,274,379.6,272.9,379.6,271.4z"/>
		<path d="M383.4,271.4c0-2,1.4-3.5,3.3-3.5c2,0,3.2,1.6,3.2,3.6v0.3h-5.5c0.1,1.3,1,2.3,2.4,2.3c0.8,0,1.6-0.3,2.1-0.9l0.5,0.7
			c-0.7,0.7-1.6,1.1-2.7,1.1C384.9,275,383.4,273.5,383.4,271.4z M386.7,268.8c-1.4,0-2.2,1.2-2.2,2.2h4.4
			C389,270,388.3,268.8,386.7,268.8z"/>
		<path d="M393.1,274.8v-6.8h1.1v1.1c0.5-0.7,1.3-1.2,2.3-1.2v1.1c-0.1,0-0.3,0-0.4,0c-0.7,0-1.5,0.5-1.8,1.1v4.8H393.1z"/>
		<path d="M398.9,266.4c0-0.4,0.3-0.7,0.7-0.7c0.4,0,0.7,0.3,0.7,0.7c0,0.4-0.3,0.7-0.7,0.7C399.3,267.1,398.9,266.8,398.9,266.4z
			 M399.1,274.8v-6.8h1.1v6.8H399.1z"/>
		<path d="M403.3,271.4c0-2,1.3-3.5,3.3-3.5c2.1,0,3.3,1.6,3.3,3.5c0,2-1.3,3.6-3.3,3.6C404.6,275,403.3,273.4,403.3,271.4z
			 M408.9,271.4c0-1.4-0.8-2.6-2.2-2.6c-1.4,0-2.2,1.2-2.2,2.6c0,1.4,0.8,2.6,2.2,2.6C408.1,274,408.9,272.8,408.9,271.4z"/>
		<path d="M418,274.8v-1c-0.5,0.7-1.3,1.2-2.3,1.2c-1.8,0-3-1.3-3-3.5c0-2.2,1.2-3.6,3-3.6c0.9,0,1.7,0.4,2.3,1.2v-3.6h1.1v9.3H418z
			 M418,273v-3.1c-0.4-0.6-1.2-1.1-2-1.1c-1.4,0-2.2,1.1-2.2,2.6s0.8,2.6,2.2,2.6C416.8,274,417.6,273.6,418,273z"/>
		<path d="M422.3,274.2c0-0.4,0.3-0.8,0.8-0.8c0.4,0,0.8,0.4,0.8,0.8c0,0.4-0.3,0.8-0.8,0.8C422.7,275,422.3,274.6,422.3,274.2z"/>
	</g>
	<circle fill="#FFFFFF" stroke="#FFFFFF" stroke-width="3" stroke-miterlimit="10" cx="289" cy="224" r="12.9"/>
	<text transform="matrix(1 0 0 1 265 185)" font-family="'MyriadPro-Regular'" font-size="12"> </text>
	<text transform="matrix(1 0 0 1 272 192)" font-family="'MyriadPro-Regular'" font-size="12"> </text>
	<path fill="#DC4C3F" d="M297.4,231.6c-4.4,4.4-11.6,4.4-16.1,0s-4.4-11.6,0-16.1s11.6-4.4,16.1,0
		C301.8,219.9,301.8,227.1,297.4,231.6L297.4,231.6z M283.3,229.6c3,3,7.6,3.3,11,0.9l-11.9-11.9C280,221.9,280.3,226.6,283.3,229.6
		L283.3,229.6z M295.3,217.5c-3-3-7.6-3.3-11-0.9l11.9,11.9C298.6,225.1,298.3,220.5,295.3,217.5L295.3,217.5z"/>
</g>
<g id="Creative_Commons_License" display="none">
	
		<text id="Creative_Commons_License_1_" transform="matrix(1 0 0 1 2 470.0439)" display="inline" font-family="'MyriadPro-Regular'" font-size="12">With assets by Visual Idiot / CC BY</text>
</g>
</svg>
