<?xml version="1.0" encoding="utf-8"?>
<!-- Generator: Adobe Illustrator 17.1.0, SVG Export Plug-In . SVG Version: 6.00 Build 0)  -->
<!DOCTYPE svg PUBLIC "-//W3C//DTD SVG 1.1//EN" "http://www.w3.org/Graphics/SVG/1.1/DTD/svg11.dtd">
<svg version="1.1" xmlns="http://www.w3.org/2000/svg" xmlns:xlink="http://www.w3.org/1999/xlink" x="0px" y="0px"
	 viewBox="0 0 640 480" enable-background="new 0 0 640 480" xml:space="preserve">
<g id="Layer_1">
	<g>
		<rect x="289" y="192.1" fill="none" stroke="#666666" stroke-width="2" stroke-miterlimit="10" width="52" height="40"/>
	</g>
	<polyline fill="none" stroke="#888888" stroke-width="2" stroke-miterlimit="10" points="298,190.1 298,184.1 351,184.1 351,224.1 
		343,224.1 	"/>
	<polyline fill="none" stroke="#666666" stroke-width="2" stroke-miterlimit="10" points="289,222.1 303,208.1 317,224.1 327,218.1 
		341,230.1 	"/>
	<circle fill="none" stroke="#666666" stroke-width="2" stroke-miterlimit="10" cx="328" cy="205.1" r="5"/>
	<g>
		<path d="M177.6,266.5v-8.9h-3.2v-1.1h7.6v1.1h-3.2v8.9H177.6z"/>
		<path d="M190.1,266.5v-4.8c0-1.3-0.6-1.6-1.6-1.6c-0.9,0-1.7,0.5-2.1,1.1v5.3h-1.1v-10h1.1v3.8c0.5-0.6,1.5-1.2,2.6-1.2
			c1.5,0,2.3,0.7,2.3,2.3v5.1H190.1z"/>
		<path d="M194.5,262.9c0-2.1,1.5-3.8,3.6-3.8c2.2,0,3.5,1.7,3.5,3.9v0.3h-5.9c0.1,1.4,1,2.5,2.6,2.5c0.8,0,1.7-0.3,2.2-0.9l0.5,0.7
			c-0.7,0.7-1.7,1.1-2.9,1.1C196.1,266.7,194.5,265.1,194.5,262.9z M198.1,260c-1.5,0-2.3,1.3-2.4,2.4h4.8
			C200.4,261.3,199.7,260,198.1,260z"/>
		<path d="M204.9,266.5v-7.2h1.1v1.2c0.6-0.8,1.4-1.3,2.4-1.3v1.2c-0.1,0-0.3,0-0.4,0c-0.7,0-1.6,0.6-2,1.2v5.1H204.9z"/>
		<path d="M210.9,262.9c0-2.1,1.5-3.8,3.6-3.8c2.2,0,3.5,1.7,3.5,3.9v0.3h-5.9c0.1,1.4,1,2.5,2.6,2.5c0.8,0,1.7-0.3,2.2-0.9l0.5,0.7
			c-0.7,0.7-1.7,1.1-2.9,1.1C212.5,266.7,210.9,265.1,210.9,262.9z M214.5,260c-1.5,0-2.3,1.3-2.4,2.4h4.8
			C216.8,261.3,216.1,260,214.5,260z"/>
		<path d="M231.2,266.5v-0.8c-0.6,0.7-1.4,1-2.4,1c-1.2,0-2.5-0.8-2.5-2.4c0-1.6,1.3-2.4,2.5-2.4c1,0,1.8,0.3,2.4,1v-1.3
			c0-1-0.8-1.5-1.8-1.5c-0.9,0-1.6,0.3-2.2,1l-0.5-0.8c0.8-0.8,1.7-1.2,2.9-1.2c1.5,0,2.8,0.7,2.8,2.4v5H231.2z M231.2,265v-1.4
			c-0.4-0.6-1.2-0.9-2-0.9c-1.1,0-1.8,0.7-1.8,1.6c0,0.9,0.7,1.6,1.8,1.6C230,265.9,230.8,265.6,231.2,265z"/>
		<path d="M236.1,266.5v-7.2h1.1v1.2c0.6-0.8,1.4-1.3,2.4-1.3v1.2c-0.1,0-0.3,0-0.4,0c-0.7,0-1.6,0.6-2,1.2v5.1H236.1z"/>
		<path d="M242.1,262.9c0-2.1,1.5-3.8,3.6-3.8c2.2,0,3.5,1.7,3.5,3.9v0.3h-5.9c0.1,1.4,1,2.5,2.6,2.5c0.8,0,1.7-0.3,2.2-0.9l0.5,0.7
			c-0.7,0.7-1.7,1.1-2.9,1.1C243.7,266.7,242.1,265.1,242.1,262.9z M245.7,260c-1.5,0-2.3,1.3-2.4,2.4h4.8
			C248,261.3,247.3,260,245.7,260z"/>
		<path d="M262.8,266.5v-4.7c0-1.3-0.7-1.7-1.6-1.7c-0.9,0-1.7,0.5-2.1,1.1v5.3h-1.1v-7.2h1.1v1c0.5-0.6,1.5-1.2,2.6-1.2
			c1.5,0,2.3,0.8,2.3,2.3v5.1H262.8z"/>
		<path d="M267.2,262.9c0-2.1,1.4-3.8,3.6-3.8s3.6,1.7,3.6,3.8c0,2.1-1.4,3.8-3.6,3.8S267.2,265,267.2,262.9z M273.2,262.9
			c0-1.5-0.9-2.8-2.4-2.8s-2.4,1.3-2.4,2.8c0,1.5,0.9,2.8,2.4,2.8S273.2,264.3,273.2,262.9z"/>
		<path d="M282.5,265.5l0.6-0.8c0.5,0.6,1.4,1,2.4,1c1.1,0,1.7-0.5,1.7-1.2c0-1.8-4.5-0.7-4.5-3.4c0-1.1,1-2.1,2.7-2.1
			c1.2,0,2.1,0.5,2.7,1l-0.5,0.8c-0.4-0.5-1.2-0.9-2.2-0.9c-1,0-1.6,0.5-1.6,1.1c0,1.6,4.5,0.5,4.5,3.4c0,1.2-1,2.2-2.8,2.2
			C284.2,266.7,283.2,266.3,282.5,265.5z"/>
		<path d="M296.5,266.5v-4.7c0-1.3-0.7-1.7-1.6-1.7c-0.9,0-1.7,0.5-2.1,1.1v5.3h-1.1v-7.2h1.1v1c0.5-0.6,1.5-1.2,2.6-1.2
			c1.5,0,2.3,0.8,2.3,2.3v5.1H296.5z"/>
		<path d="M305.9,266.5v-0.8c-0.6,0.7-1.4,1-2.4,1c-1.2,0-2.5-0.8-2.5-2.4c0-1.6,1.3-2.4,2.5-2.4c1,0,1.8,0.3,2.4,1v-1.3
			c0-1-0.8-1.5-1.8-1.5c-0.9,0-1.6,0.3-2.2,1l-0.5-0.8c0.8-0.8,1.7-1.2,2.9-1.2c1.5,0,2.8,0.7,2.8,2.4v5H305.9z M305.9,265v-1.4
			c-0.4-0.6-1.2-0.9-2-0.9c-1.1,0-1.8,0.7-1.8,1.6c0,0.9,0.7,1.6,1.8,1.6C304.7,265.9,305.5,265.6,305.9,265z"/>
		<path d="M311.9,265.4v3.9h-1.1v-10h1.1v1.1c0.5-0.7,1.4-1.3,2.4-1.3c1.9,0,3.2,1.4,3.2,3.8c0,2.3-1.3,3.8-3.2,3.8
			C313.4,266.7,312.5,266.2,311.9,265.4z M316.4,262.9c0-1.6-0.9-2.8-2.3-2.8c-0.9,0-1.8,0.5-2.2,1.2v3.3c0.4,0.6,1.3,1.2,2.2,1.2
			C315.5,265.7,316.4,264.5,316.4,262.9z"/>
		<path d="M320.2,265.5l0.6-0.8c0.5,0.6,1.4,1,2.4,1c1.1,0,1.7-0.5,1.7-1.2c0-1.8-4.5-0.7-4.5-3.4c0-1.1,1-2.1,2.7-2.1
			c1.2,0,2.1,0.5,2.7,1l-0.5,0.8c-0.4-0.5-1.2-0.9-2.2-0.9c-1,0-1.6,0.5-1.6,1.1c0,1.6,4.5,0.5,4.5,3.4c0,1.2-1,2.2-2.8,2.2
			C322,266.7,321,266.3,320.2,265.5z"/>
		<path d="M334.2,266.5v-4.8c0-1.3-0.6-1.6-1.6-1.6c-0.9,0-1.7,0.5-2.1,1.1v5.3h-1.1v-10h1.1v3.8c0.5-0.6,1.5-1.2,2.6-1.2
			c1.5,0,2.3,0.7,2.3,2.3v5.1H334.2z"/>
		<path d="M338.7,262.9c0-2.1,1.4-3.8,3.6-3.8s3.6,1.7,3.6,3.8c0,2.1-1.4,3.8-3.6,3.8S338.7,265,338.7,262.9z M344.7,262.9
			c0-1.5-0.9-2.8-2.4-2.8s-2.4,1.3-2.4,2.8c0,1.5,0.9,2.8,2.4,2.8S344.7,264.3,344.7,262.9z"/>
		<path d="M349.4,265v-4.7h-1.2v-1h1.2v-2h1.1v2h1.5v1h-1.5v4.5c0,0.5,0.2,0.9,0.7,0.9c0.3,0,0.6-0.2,0.8-0.3l0.3,0.9
			c-0.3,0.3-0.7,0.5-1.3,0.5C350,266.7,349.4,266.1,349.4,265z"/>
		<path d="M354.5,265.5l0.6-0.8c0.5,0.6,1.4,1,2.4,1c1.1,0,1.7-0.5,1.7-1.2c0-1.8-4.5-0.7-4.5-3.4c0-1.1,1-2.1,2.7-2.1
			c1.2,0,2.1,0.5,2.7,1l-0.5,0.8c-0.4-0.5-1.2-0.9-2.2-0.9c-1,0-1.6,0.5-1.6,1.1c0,1.6,4.5,0.5,4.5,3.4c0,1.2-1,2.2-2.8,2.2
			C356.2,266.7,355.2,266.3,354.5,265.5z"/>
		<path d="M373.5,266.5v-0.8c-0.6,0.7-1.4,1-2.4,1c-1.2,0-2.5-0.8-2.5-2.4c0-1.6,1.3-2.4,2.5-2.4c1,0,1.8,0.3,2.4,1v-1.3
			c0-1-0.8-1.5-1.8-1.5c-0.9,0-1.6,0.3-2.2,1l-0.5-0.8c0.8-0.8,1.7-1.2,2.9-1.2c1.5,0,2.8,0.7,2.8,2.4v5H373.5z M373.5,265v-1.4
			c-0.4-0.6-1.2-0.9-2-0.9c-1.1,0-1.8,0.7-1.8,1.6c0,0.9,0.7,1.6,1.8,1.6C372.3,265.9,373.1,265.6,373.5,265z"/>
		<path d="M380.3,266.5l-3-7.2h1.2l2.4,5.9l2.4-5.9h1.2l-3,7.2H380.3z"/>
		<path d="M391.8,266.5v-0.8c-0.6,0.7-1.4,1-2.4,1c-1.2,0-2.5-0.8-2.5-2.4c0-1.6,1.3-2.4,2.5-2.4c1,0,1.8,0.3,2.4,1v-1.3
			c0-1-0.8-1.5-1.8-1.5c-0.9,0-1.6,0.3-2.2,1l-0.5-0.8c0.8-0.8,1.7-1.2,2.9-1.2c1.5,0,2.8,0.7,2.8,2.4v5H391.8z M391.8,265v-1.4
			c-0.4-0.6-1.2-0.9-2-0.9c-1.1,0-1.8,0.7-1.8,1.6c0,0.9,0.7,1.6,1.8,1.6C390.6,265.9,391.3,265.6,391.8,265z"/>
		<path d="M396.5,257.5c0-0.4,0.3-0.8,0.8-0.8s0.8,0.3,0.8,0.8s-0.3,0.8-0.8,0.8S396.5,257.9,396.5,257.5z M396.7,266.5v-7.2h1.1
			v7.2H396.7z"/>
		<path d="M401.5,266.5v-10h1.1v10H401.5z"/>
		<path d="M410.9,266.5v-0.8c-0.6,0.7-1.4,1-2.4,1c-1.2,0-2.5-0.8-2.5-2.4c0-1.6,1.3-2.4,2.5-2.4c1,0,1.8,0.3,2.4,1v-1.3
			c0-1-0.8-1.5-1.8-1.5c-0.9,0-1.6,0.3-2.2,1l-0.5-0.8c0.8-0.8,1.7-1.2,2.9-1.2c1.5,0,2.8,0.7,2.8,2.4v5H410.9z M410.9,265v-1.4
			c-0.4-0.6-1.2-0.9-2-0.9c-1.1,0-1.8,0.7-1.8,1.6c0,0.9,0.7,1.6,1.8,1.6C409.7,265.9,410.5,265.6,410.9,265z"/>
		<path d="M415.8,266.5v-10h1.1v3.9c0.6-0.8,1.5-1.3,2.4-1.3c1.9,0,3.2,1.5,3.2,3.8c0,2.4-1.3,3.8-3.2,3.8c-1,0-1.9-0.5-2.4-1.3v1.1
			H415.8z M419.1,265.7c1.5,0,2.3-1.2,2.3-2.8c0-1.6-0.9-2.8-2.3-2.8c-0.9,0-1.8,0.5-2.2,1.2v3.3
			C417.3,265.2,418.2,265.7,419.1,265.7z"/>
		<path d="M426,266.5v-10h1.1v10H426z"/>
		<path d="M430.4,262.9c0-2.1,1.5-3.8,3.6-3.8c2.2,0,3.5,1.7,3.5,3.9v0.3h-5.8c0.1,1.4,1,2.5,2.6,2.5c0.8,0,1.7-0.3,2.2-0.9l0.5,0.7
			c-0.7,0.7-1.7,1.1-2.9,1.1C432,266.7,430.4,265.1,430.4,262.9z M434,260c-1.5,0-2.3,1.3-2.4,2.4h4.8
			C436.3,261.3,435.6,260,434,260z"/>
		<path d="M446.5,266.5v-6.3h-1.2v-1h1.2v-0.6c0-1.5,0.8-2.4,2.1-2.4c0.6,0,1.1,0.1,1.5,0.6l-0.5,0.7c-0.2-0.2-0.5-0.3-0.9-0.3
			c-0.8,0-1.2,0.5-1.2,1.4v0.6h1.5v1h-1.5v6.3H446.5z"/>
		<path d="M451.5,262.9c0-2.1,1.4-3.8,3.6-3.8s3.6,1.7,3.6,3.8c0,2.1-1.4,3.8-3.6,3.8S451.5,265,451.5,262.9z M457.5,262.9
			c0-1.5-0.9-2.8-2.4-2.8s-2.4,1.3-2.4,2.8c0,1.5,0.9,2.8,2.4,2.8S457.5,264.3,457.5,262.9z"/>
		<path d="M462,266.5v-7.2h1.1v1.2c0.6-0.8,1.4-1.3,2.4-1.3v1.2c-0.1,0-0.3,0-0.4,0c-0.7,0-1.6,0.6-2,1.2v5.1H462z"/>
		<path d="M221.6,283v-4.7h-1.2v-1h1.2v-2h1.1v2h1.5v1h-1.5v4.5c0,0.5,0.2,0.9,0.7,0.9c0.3,0,0.6-0.2,0.8-0.3l0.3,0.9
			c-0.3,0.3-0.7,0.5-1.3,0.5C222.1,284.7,221.6,284.1,221.6,283z"/>
		<path d="M232.2,284.5v-4.8c0-1.3-0.6-1.6-1.6-1.6c-0.9,0-1.7,0.5-2.1,1.1v5.3h-1.1v-10h1.1v3.8c0.5-0.6,1.5-1.2,2.6-1.2
			c1.5,0,2.3,0.7,2.3,2.3v5.1H232.2z"/>
		<path d="M236.6,280.9c0-2.1,1.5-3.8,3.6-3.8c2.2,0,3.5,1.7,3.5,3.9v0.3h-5.9c0.1,1.4,1,2.5,2.6,2.5c0.8,0,1.7-0.3,2.2-0.9l0.5,0.7
			c-0.7,0.7-1.7,1.1-2.9,1.1C238.2,284.7,236.6,283.1,236.6,280.9z M240.2,278c-1.5,0-2.3,1.3-2.4,2.4h4.8
			C242.6,279.3,241.8,278,240.2,278z"/>
		<path d="M251.8,283.5l0.6-0.8c0.5,0.6,1.4,1,2.4,1c1.1,0,1.7-0.5,1.7-1.2c0-1.8-4.5-0.7-4.5-3.4c0-1.1,1-2.1,2.7-2.1
			c1.2,0,2.1,0.5,2.7,1l-0.5,0.8c-0.4-0.5-1.2-0.9-2.2-0.9c-1,0-1.6,0.5-1.6,1.1c0,1.6,4.5,0.5,4.5,3.4c0,1.2-1,2.2-2.8,2.2
			C253.5,284.7,252.5,284.3,251.8,283.5z"/>
		<path d="M260.4,280.9c0-2.1,1.5-3.8,3.6-3.8c2.2,0,3.5,1.7,3.5,3.9v0.3h-5.8c0.1,1.4,1,2.5,2.6,2.5c0.8,0,1.7-0.3,2.2-0.9l0.5,0.7
			c-0.7,0.7-1.7,1.1-2.9,1.1C262,284.7,260.4,283.1,260.4,280.9z M264,278c-1.5,0-2.3,1.3-2.4,2.4h4.8
			C266.4,279.3,265.6,278,264,278z"/>
		<path d="M270.8,284.5v-10h1.1v10H270.8z"/>
		<path d="M275.3,280.9c0-2.1,1.5-3.8,3.6-3.8c2.2,0,3.5,1.7,3.5,3.9v0.3h-5.8c0.1,1.4,1,2.5,2.6,2.5c0.8,0,1.7-0.3,2.2-0.9l0.5,0.7
			c-0.7,0.7-1.7,1.1-2.9,1.1C276.8,284.7,275.3,283.1,275.3,280.9z M278.8,278c-1.5,0-2.3,1.3-2.4,2.4h4.8
			C281.2,279.3,280.5,278,278.8,278z"/>
		<path d="M285.2,280.9c0-2.1,1.5-3.8,3.6-3.8c1.3,0,2.1,0.5,2.7,1.3l-0.8,0.7c-0.5-0.7-1.1-0.9-1.8-0.9c-1.5,0-2.5,1.2-2.5,2.8
			c0,1.6,1,2.8,2.5,2.8c0.8,0,1.4-0.3,1.8-0.9l0.8,0.7c-0.6,0.7-1.3,1.3-2.7,1.3C286.7,284.7,285.2,283,285.2,280.9z"/>
		<path d="M294.8,283v-4.7h-1.2v-1h1.2v-2h1.1v2h1.5v1h-1.5v4.5c0,0.5,0.2,0.9,0.7,0.9c0.3,0,0.6-0.2,0.8-0.3l0.3,0.9
			c-0.3,0.3-0.7,0.5-1.3,0.5C295.3,284.7,294.8,284.1,294.8,283z"/>
		<path d="M300.1,280.9c0-2.1,1.5-3.8,3.6-3.8c2.2,0,3.5,1.7,3.5,3.9v0.3h-5.8c0.1,1.4,1,2.5,2.6,2.5c0.8,0,1.7-0.3,2.2-0.9l0.5,0.7
			c-0.7,0.7-1.7,1.1-2.9,1.1C301.6,284.7,300.1,283.1,300.1,280.9z M303.6,278c-1.5,0-2.3,1.3-2.4,2.4h4.8
			C306,279.3,305.3,278,303.6,278z"/>
		<path d="M315.7,284.5v-1.1c-0.5,0.7-1.4,1.3-2.4,1.3c-1.9,0-3.2-1.4-3.2-3.8c0-2.3,1.3-3.8,3.2-3.8c1,0,1.9,0.5,2.4,1.3v-3.9h1.1
			v10H315.7z M315.7,282.5v-3.3c-0.4-0.6-1.3-1.2-2.2-1.2c-1.5,0-2.3,1.2-2.3,2.8c0,1.6,0.9,2.8,2.3,2.8
			C314.4,283.7,315.3,283.1,315.7,282.5z"/>
		<path d="M326.2,283v-4.7H325v-1h1.2v-2h1.1v2h1.5v1h-1.5v4.5c0,0.5,0.2,0.9,0.7,0.9c0.3,0,0.6-0.2,0.8-0.3l0.3,0.9
			c-0.3,0.3-0.7,0.5-1.3,0.5C326.7,284.7,326.2,284.1,326.2,283z"/>
		<path d="M331.6,275.5c0-0.4,0.3-0.8,0.8-0.8s0.8,0.3,0.8,0.8s-0.3,0.8-0.8,0.8S331.6,275.9,331.6,275.5z M331.8,284.5v-7.2h1.1
			v7.2H331.8z"/>
		<path d="M345.5,284.5v-4.9c0-0.9-0.4-1.5-1.3-1.5c-0.7,0-1.5,0.5-1.9,1.1v5.3h-1.1v-4.9c0-0.9-0.4-1.5-1.3-1.5
			c-0.7,0-1.5,0.5-1.9,1.1v5.3h-1.1v-7.2h1.1v1c0.3-0.5,1.3-1.2,2.4-1.2c1.1,0,1.7,0.6,1.9,1.3c0.4-0.7,1.4-1.3,2.4-1.3
			c1.3,0,2,0.7,2,2.2v5.2H345.5z"/>
		<path d="M349.9,280.9c0-2.1,1.5-3.8,3.6-3.8c2.2,0,3.5,1.7,3.5,3.9v0.3h-5.8c0.1,1.4,1,2.5,2.6,2.5c0.8,0,1.7-0.3,2.2-0.9l0.5,0.7
			c-0.7,0.7-1.7,1.1-2.9,1.1C351.5,284.7,349.9,283.1,349.9,280.9z M353.5,278c-1.5,0-2.3,1.3-2.4,2.4h4.8
			C355.8,279.3,355.1,278,353.5,278z"/>
		<path d="M366.8,283.4v3.9h-1.1v-10h1.1v1.1c0.5-0.7,1.4-1.3,2.4-1.3c1.9,0,3.2,1.4,3.2,3.8c0,2.3-1.3,3.8-3.2,3.8
			C368.2,284.7,367.4,284.2,366.8,283.4z M371.3,280.9c0-1.6-0.9-2.8-2.3-2.8c-0.9,0-1.8,0.5-2.2,1.2v3.3c0.4,0.6,1.3,1.2,2.2,1.2
			C370.4,283.7,371.3,282.5,371.3,280.9z"/>
		<path d="M375.3,280.9c0-2.1,1.5-3.8,3.6-3.8c2.2,0,3.5,1.7,3.5,3.9v0.3h-5.8c0.1,1.4,1,2.5,2.6,2.5c0.8,0,1.7-0.3,2.2-0.9l0.5,0.7
			c-0.7,0.7-1.7,1.1-2.9,1.1C376.9,284.7,375.3,283.1,375.3,280.9z M378.9,278c-1.5,0-2.3,1.3-2.4,2.4h4.8
			C381.3,279.3,380.5,278,378.9,278z"/>
		<path d="M385.7,284.5v-7.2h1.1v1.2c0.6-0.8,1.4-1.3,2.4-1.3v1.2c-0.1,0-0.3,0-0.4,0c-0.7,0-1.6,0.6-2,1.2v5.1H385.7z"/>
		<path d="M391.9,275.5c0-0.4,0.3-0.8,0.8-0.8s0.8,0.3,0.8,0.8s-0.3,0.8-0.8,0.8S391.9,275.9,391.9,275.5z M392.1,284.5v-7.2h1.1
			v7.2H392.1z"/>
		<path d="M396.6,280.9c0-2.1,1.4-3.8,3.6-3.8s3.6,1.7,3.6,3.8c0,2.1-1.4,3.8-3.6,3.8S396.6,283,396.6,280.9z M402.6,280.9
			c0-1.5-0.9-2.8-2.4-2.8s-2.4,1.3-2.4,2.8c0,1.5,0.9,2.8,2.4,2.8S402.6,282.3,402.6,280.9z"/>
		<path d="M412.3,284.5v-1.1c-0.5,0.7-1.4,1.3-2.4,1.3c-1.9,0-3.2-1.4-3.2-3.8c0-2.3,1.3-3.8,3.2-3.8c1,0,1.9,0.5,2.4,1.3v-3.9h1.1
			v10H412.3z M412.3,282.5v-3.3c-0.4-0.6-1.3-1.2-2.2-1.2c-1.5,0-2.3,1.2-2.3,2.8c0,1.6,0.9,2.8,2.3,2.8
			C411.1,283.7,412,283.1,412.3,282.5z"/>
		<path d="M417,283.8c0-0.5,0.4-0.8,0.8-0.8c0.5,0,0.8,0.4,0.8,0.8c0,0.4-0.4,0.8-0.8,0.8C417.4,284.6,417,284.3,417,283.8z"/>
	</g>
	<text transform="matrix(1 0 0 1 265 195)" font-family="'MyriadPro-Regular'" font-size="12"> </text>
	<text transform="matrix(1 0 0 1 272 198)" font-family="'MyriadPro-Regular'" font-size="12"> </text>
	<circle fill="#DC4C3F" cx="289.5" cy="232" r="7.7"/>
	<path fill="#FFFFFF" d="M295.9,238.7c-3.7,3.7-9.6,3.7-13.3,0c-3.7-3.7-3.7-9.6,0-13.3c3.7-3.7,9.6-3.7,13.3,0
		C299.6,229.1,299.6,235,295.9,238.7L295.9,238.7z M284.3,237c2.5,2.5,6.3,2.7,9,0.8l-9.8-9.8C281.6,230.7,281.8,234.5,284.3,237
		L284.3,237z M294.3,227.1c-2.5-2.5-6.3-2.7-9-0.8l9.8,9.8C297,233.4,296.7,229.5,294.3,227.1L294.3,227.1z"/>
</g>
<g id="Creative_Commons_License" display="none">
	
		<text id="Creative_Commons_License_1_" transform="matrix(1 0 0 1 2 470.0439)" display="inline" font-family="'MyriadPro-Regular'" font-size="12">With assets by Visual Idiot / CC BY</text>
</g>
</svg>
